<?xml version="1.0" standalone="no"?>
<!DOCTYPE svg PUBLIC "-//W3C//DTD SVG 20010904//EN"
 "http://www.w3.org/TR/2001/REC-SVG-20010904/DTD/svg10.dtd">
<svg version="1.0" xmlns="http://www.w3.org/2000/svg"
 width="877.000000pt" height="877.000000pt" viewBox="0 0 877.000000 877.000000"
 preserveAspectRatio="xMidYMid meet">
<metadata>
Created by potrace 1.11, written by Peter Selinger 2001-2013
</metadata>
<g transform="translate(0.000000,877.000000) scale(0.100000,-0.100000)"
fill="#000000" stroke="none">
<path d="M4205 8572 c-11 -2 -61 -17 -111 -33 -50 -16 -101 -29 -113 -29 -12
0 -29 -4 -39 -9 -9 -4 -33 -14 -52 -21 -19 -7 -48 -17 -65 -24 -34 -13 -139
-79 -170 -106 -11 -10 -60 -40 -110 -67 -75 -40 -100 -49 -149 -52 -53 -2
-116 -22 -116 -37 0 -2 9 0 19 6 11 5 27 10 35 10 27 0 17 -15 -18 -28 -18 -7
-70 -35 -115 -62 -46 -28 -86 -48 -90 -46 -7 5 -91 -79 -141 -139 -55 -65
-100 -89 -336 -176 -75 -27 -143 -53 -152 -59 -39 -22 19 -8 161 39 81 27 147
46 147 42 0 -4 -27 -26 -60 -49 -68 -49 -230 -192 -230 -205 0 -5 10 -5 21 -2
16 6 20 4 13 -6 -17 -30 -70 -96 -114 -143 -25 -27 -39 -46 -32 -42 24 14 11
-5 -71 -107 -93 -114 -131 -166 -126 -172 3 -2 69 61 148 141 80 79 146 142
149 140 2 -3 -8 -24 -21 -48 -54 -93 -89 -156 -126 -228 -73 -143 -64 -163 13
-29 26 44 50 79 52 76 3 -3 -6 -40 -19 -84 -14 -43 -28 -93 -32 -111 -4 -19
-22 -66 -40 -106 -48 -105 -84 -223 -88 -287 -4 -57 -25 -130 -60 -208 -11
-24 -20 -51 -20 -60 1 -9 -1 -23 -4 -31 -3 -8 -7 -34 -9 -58 -2 -23 -8 -51
-13 -61 -12 -21 -5 -32 15 -24 12 4 14 -1 8 -23 -3 -16 -13 -39 -20 -52 -11
-17 -12 -27 -3 -43 18 -35 15 -171 -6 -202 -17 -27 -9 -37 13 -15 22 22 21 2
-2 -64 -23 -66 -23 -66 -2 -55 12 7 24 17 28 22 5 6 8 6 8 -1 0 -6 -3 -14 -7
-18 -5 -4 -8 -24 -9 -44 0 -20 -10 -59 -22 -85 -23 -50 -21 -73 5 -63 11 5 13
1 7 -17 -3 -12 -13 -30 -21 -39 -19 -21 -9 -38 18 -31 18 5 19 2 13 -23 -4
-16 -14 -37 -22 -47 -11 -13 -13 -20 -5 -28 6 -6 9 -19 5 -28 -5 -14 -4 -14
12 -2 15 13 19 13 27 0 12 -19 11 -25 -6 -39 -9 -7 -13 -24 -11 -43 2 -18 -1
-38 -6 -44 -6 -7 -7 -13 -3 -13 4 0 14 8 22 18 12 15 13 13 7 -18 -7 -42 -10
-44 -54 -59 -19 -6 -45 -20 -58 -31 -44 -36 -49 -69 -44 -259 3 -115 0 -204
-8 -258 -13 -83 -13 -83 17 -150 66 -148 76 -193 74 -343 -1 -69 4 -188 10
-265 7 -77 12 -147 11 -155 -1 -8 -6 -64 -12 -124 l-11 -110 36 -35 c33 -33
40 -36 108 -39 l73 -4 13 -92 c7 -50 19 -118 27 -151 7 -33 20 -89 28 -125 8
-36 29 -110 46 -165 18 -55 40 -125 49 -155 16 -49 36 -98 88 -218 8 -19 13
-35 11 -36 -1 -2 -36 -24 -75 -50 -40 -26 -75 -52 -79 -57 -3 -5 -16 -9 -30
-9 -13 0 -24 -4 -24 -10 0 -5 -4 -10 -9 -10 -5 0 -3 14 5 30 17 33 31 39 36
15 2 -13 9 -11 37 10 31 22 33 30 9 26 -21 -3 -5 18 17 23 14 4 25 11 25 17 0
6 -10 8 -22 5 -13 -3 -17 -3 -10 0 6 3 12 12 12 21 0 11 -7 9 -28 -9 -16 -13
-26 -25 -21 -28 4 -3 1 -14 -7 -24 -13 -19 -14 -18 -14 9 0 27 0 28 -20 10
-18 -16 -20 -16 -20 -2 0 10 -7 17 -15 17 -8 0 -15 -4 -15 -9 0 -5 -14 -12
-30 -16 -32 -7 -62 -46 -41 -53 6 -2 18 -10 25 -18 12 -11 16 -11 25 0 9 11 9
15 -1 19 -9 4 -9 6 -1 6 20 2 24 -17 7 -33 -8 -9 -13 -20 -10 -25 7 -11 -57
-45 -75 -39 -9 3 0 11 24 22 20 10 37 19 37 20 0 0 -25 1 -56 2 -34 0 -59 6
-64 14 -6 10 -15 7 -36 -14 -23 -21 -26 -28 -15 -35 10 -7 10 -10 1 -16 -9 -6
-9 -10 1 -16 10 -6 4 -9 -18 -9 -37 0 -50 -15 -32 -37 11 -13 11 -15 -6 -12
-14 3 -19 13 -20 34 -1 21 -5 29 -15 26 -8 -2 -25 -3 -36 -3 -15 1 -24 -6 -28
-21 -5 -18 -8 -19 -15 -8 -7 11 -13 12 -23 3 -11 -9 -17 -9 -26 0 -8 8 -13 7
-18 -5 -4 -12 -18 -17 -44 -17 -22 0 -40 -5 -43 -12 -3 -10 -8 -10 -21 1 -19
16 -31 8 -40 -29 -6 -22 -5 -23 6 -8 9 11 23 14 41 11 19 -4 27 -1 27 9 0 7 9
14 20 15 11 1 20 -4 20 -13 0 -8 -8 -14 -18 -14 -11 0 -26 -8 -35 -18 -11 -12
-30 -17 -61 -17 -25 1 -43 -2 -40 -6 2 -4 0 -10 -5 -13 -21 -13 -15 30 6 47
26 21 30 37 9 37 -8 0 -16 6 -19 13 -2 6 -8 0 -12 -15 -5 -21 -13 -28 -30 -28
-24 0 -43 -15 -26 -22 13 -5 24 -48 12 -48 -6 0 -11 4 -11 10 0 5 -6 7 -14 4
-8 -3 -16 3 -19 15 -3 13 -13 21 -26 21 -20 0 -25 -9 -22 -37 1 -6 -3 -14 -8
-17 -6 -4 -8 8 -5 28 4 33 3 34 -21 23 -14 -7 -25 -17 -25 -24 0 -6 -3 -18 -6
-27 -4 -11 -1 -16 10 -16 9 0 16 -4 16 -9 0 -15 -76 -24 -99 -11 -24 13 -28
30 -6 30 8 0 15 -7 15 -15 0 -18 17 -20 33 -2 14 13 14 30 2 64 -9 28 -29 31
-22 3 9 -34 -12 -22 -30 17 -15 34 -17 36 -20 15 -3 -13 0 -29 6 -36 15 -17 1
-29 -16 -14 -8 6 -29 13 -46 15 -18 1 -27 0 -20 -5 6 -4 14 -25 18 -46 7 -37
6 -39 -14 -33 -14 3 -21 1 -21 -10 0 -8 -6 -13 -12 -10 -17 5 -11 39 9 54 24
18 10 25 -23 13 -20 -8 -30 -8 -32 -1 -4 13 -52 15 -52 2 0 -13 -32 -23 -39
-13 -3 5 -14 11 -23 15 -12 4 -15 2 -11 -9 3 -7 11 -14 19 -14 8 0 14 -9 14
-19 0 -17 -4 -18 -42 -9 -24 6 -47 15 -53 19 -12 12 -25 11 -25 -1 0 -5 12
-13 26 -16 17 -4 22 -10 16 -16 -6 -6 -8 -17 -4 -26 4 -12 1 -14 -12 -9 -10 4
-26 2 -36 -3 -13 -7 -21 -7 -25 0 -4 6 -11 8 -16 4 -6 -4 -6 -11 2 -20 9 -11
7 -15 -7 -21 -11 -4 -27 -17 -37 -30 -21 -26 -37 -30 -37 -8 0 8 -4 15 -10 15
-5 0 -10 -9 -10 -20 0 -31 -30 -22 -43 13 -3 9 -14 17 -24 17 -17 -1 -17 -1 0
-11 9 -5 17 -16 17 -24 0 -8 8 -19 18 -25 16 -11 16 -11 0 -6 -10 3 -18 0 -18
-6 0 -7 -5 -6 -15 2 -23 19 -31 3 -11 -19 21 -23 7 -36 -30 -27 -23 6 -34 26
-15 26 6 0 9 9 8 19 -1 20 -26 18 -29 -3 0 -6 -2 -15 -3 -21 -2 -5 -3 -25 -4
-42 -1 -25 -6 -33 -19 -33 -10 0 -24 -6 -31 -13 -11 -10 -13 -9 -8 6 5 12 1
17 -11 17 -12 0 -13 3 -5 8 7 5 -4 8 -26 7 -30 0 -38 -4 -36 -16 2 -10 -3 -16
-13 -15 -24 2 -28 -41 -5 -47 12 -3 10 -5 -8 -6 -15 0 -32 6 -39 14 -16 20
-36 19 -44 -1 -3 -9 -6 -17 -6 -18 0 -2 14 -3 31 -4 37 -1 55 -15 43 -33 -6
-10 -9 -8 -13 5 -6 15 -8 15 -28 -4 -13 -11 -28 -19 -35 -18 -7 2 -12 -3 -13
-11 0 -8 -6 -16 -14 -19 -8 -3 -11 0 -8 5 4 6 -5 20 -18 31 -31 27 -35 27 -28
1 8 -29 -27 -22 -43 9 -9 19 -13 20 -17 8 -4 -9 -2 -16 3 -16 6 0 10 -7 10
-15 0 -8 7 -15 15 -15 14 0 14 -3 -2 -23 -19 -26 -63 -26 -63 0 0 16 -20 14
-23 -2 -1 -5 -11 -19 -22 -31 -15 -17 -24 -20 -42 -13 -14 5 -23 5 -23 -1 0
-6 7 -10 15 -10 8 0 15 -4 15 -10 0 -5 -9 -10 -19 -10 -11 0 -22 -6 -24 -12
-3 -8 -6 -6 -6 5 -1 21 -21 23 -21 1 0 -10 -6 -14 -15 -10 -8 3 -15 1 -15 -4
0 -6 4 -10 8 -10 13 0 10 -30 -2 -31 -6 -1 -24 -3 -41 -4 -16 -1 -35 -3 -42
-4 -10 -1 -13 -148 -13 -656 l0 -655 2455 0 c2176 0 2455 2 2455 15 0 8 4 15
9 15 5 0 13 9 16 21 4 12 12 18 21 15 10 -4 20 8 32 34 9 22 22 40 29 40 7 0
12 6 11 12 -2 8 7 12 24 11 20 -1 25 2 21 13 -3 8 0 14 7 14 6 0 8 5 5 10 -3
6 0 10 7 10 7 0 24 12 37 26 18 19 26 22 32 12 7 -11 9 -11 9 0 0 7 7 21 16
30 15 15 16 14 10 -8 -6 -25 -6 -25 5 -2 13 23 29 30 29 10 0 -6 11 2 25 18
19 23 25 25 25 12 0 -10 5 -18 11 -18 6 0 8 9 4 20 -7 23 7 27 24 6 20 -24 57
-7 75 35 10 21 24 39 31 39 8 0 12 6 9 14 -3 8 -1 17 5 21 6 3 11 13 11 22 0
8 11 24 25 35 14 11 23 23 20 28 -3 5 5 10 17 12 13 2 23 10 23 18 0 8 6 21
13 28 6 7 12 22 12 32 0 10 9 22 21 25 12 4 18 12 15 21 -3 7 -2 13 2 13 22
-4 33 3 30 19 -4 20 38 66 53 57 6 -4 9 2 8 17 -3 34 23 88 43 88 9 0 20 5 23
10 3 6 -2 10 -11 10 -16 0 -16 2 1 20 17 18 17 20 2 14 -24 -9 -21 13 3 28 11
7 20 18 20 24 0 5 14 20 30 33 17 12 28 26 25 31 -3 6 -1 18 4 27 6 10 11 14
11 8 1 -20 29 41 30 65 0 30 34 125 51 146 8 10 8 14 0 14 -6 0 -11 7 -11 15
0 8 5 15 11 15 5 0 8 4 5 9 -3 5 4 11 15 14 15 4 19 11 15 25 -4 11 -1 26 7
34 8 7 20 38 27 68 8 30 21 61 29 68 9 7 16 29 17 51 0 39 35 98 123 212 20
26 45 58 55 73 10 14 22 26 26 26 17 0 19 -91 5 -238 -17 -168 -35 -271 -65
-367 -87 -283 -143 -508 -159 -643 -11 -85 -26 -151 -43 -187 -5 -11 -10 -31
-12 -45 -3 -24 -22 -97 -34 -130 -11 -33 -33 -109 -36 -130 -1 -9 -6 -22 -11
-30 -10 -17 -11 -19 -21 -73 l-7 -37 1457 0 1456 0 0 571 0 570 -52 25 c-29
13 -60 28 -68 33 -8 5 -49 25 -90 44 -76 35 -135 51 -245 63 -33 4 -76 13 -95
20 -19 7 -62 20 -95 29 -33 10 -76 27 -95 39 -49 31 -184 95 -330 157 -69 29
-136 62 -150 75 -22 19 -207 94 -232 94 -8 0 -33 11 -148 63 -25 11 -75 30
-113 42 -49 16 -74 30 -90 52 -12 16 -38 43 -57 60 -35 30 -141 83 -165 83 -8
0 -26 7 -42 15 -77 40 -191 88 -234 98 -27 7 -49 17 -49 24 0 6 15 44 34 85
63 136 89 207 45 125 -11 -20 -35 -53 -53 -72 -19 -19 -36 -41 -39 -48 -2 -6
-8 -8 -13 -4 -5 4 -3 12 4 16 10 6 10 10 -2 20 -8 7 -20 10 -26 6 -5 -3 -10 1
-10 10 0 10 -7 15 -17 13 -25 -5 -26 -22 -1 -33 13 -6 25 -19 27 -30 2 -11 0
-17 -4 -13 -5 4 -15 2 -22 -4 -12 -10 -14 -9 -11 4 1 9 0 17 -4 17 -23 2 -26
-1 -21 -19 3 -12 -1 -22 -11 -26 -10 -4 -16 -18 -16 -35 0 -22 -5 -29 -20 -29
-11 0 -20 -4 -20 -8 0 -11 -69 -12 -76 -1 -7 11 -46 1 -56 -14 -3 -6 -14 -12
-24 -13 -36 -6 -64 -27 -64 -51 0 -13 -6 -23 -14 -23 -8 0 -21 -9 -29 -21 -11
-16 -22 -19 -46 -16 -17 3 -29 2 -26 -3 2 -4 -4 -15 -15 -25 -25 -23 -17 -36
18 -29 23 5 28 2 29 -15 1 -15 -4 -21 -17 -21 -14 0 -22 -11 -30 -41 -6 -23
-9 -47 -6 -54 3 -8 -2 -19 -10 -26 -8 -7 -24 -31 -35 -53 -15 -31 -16 -42 -7
-48 10 -6 10 -10 -2 -18 -11 -7 -17 -5 -21 8 -5 14 -8 13 -18 -7 -11 -19 -11
-25 0 -32 11 -8 11 -11 -3 -20 -10 -5 -18 -19 -18 -29 0 -11 -4 -20 -10 -20
-5 0 -7 -7 -4 -15 4 -8 1 -15 -5 -15 -6 0 -11 -7 -11 -16 0 -13 -3 -14 -13 -5
-16 13 -28 5 -20 -15 3 -8 0 -14 -6 -14 -7 0 -9 -10 -5 -27 4 -16 3 -25 -1
-21 -10 9 -75 -57 -75 -77 0 -21 -38 -95 -49 -95 -4 0 -13 -10 -20 -22 -39
-75 -58 -103 -69 -102 -6 1 -21 2 -32 3 -15 1 -20 8 -20 29 0 15 5 33 12 40
15 15 4 26 -17 19 -21 -9 -19 -63 4 -86 23 -23 17 -33 -14 -25 -15 4 -24 0
-28 -10 -4 -9 -2 -16 4 -16 6 0 6 -6 0 -19 -6 -10 -7 -21 -4 -25 3 -3 -8 -9
-26 -12 -18 -4 -35 -13 -38 -20 -4 -10 -10 -11 -24 -3 -15 7 -21 6 -25 -6 -3
-8 -17 -15 -30 -15 -15 0 -39 -15 -63 -41 -22 -22 -46 -39 -53 -37 -7 1 -25
-6 -40 -15 -14 -10 -35 -17 -44 -15 -13 2 -19 -3 -19 -16 0 -13 -10 -22 -28
-27 -22 -6 -27 -5 -23 6 3 8 0 16 -7 18 -14 5 -67 -12 -67 -21 0 -14 -107 -4
-138 12 -32 17 -79 23 -54 8 9 -7 8 -13 -8 -27 -19 -18 -20 -18 -20 3 0 19
-10 27 -25 20 -2 -2 -11 6 -19 17 -15 20 -12 40 5 30 5 -4 9 -2 9 3 0 6 -7 13
-16 16 -22 9 -24 8 -24 -9 0 -27 -17 -16 -23 15 -4 17 -11 30 -17 30 -6 0 -8
-6 -5 -12 4 -7 0 -5 -8 5 -10 12 -17 14 -22 7 -3 -5 -12 -7 -18 -3 -7 4 -21 7
-32 8 -17 0 -20 6 -18 35 2 28 1 31 -6 15 -5 -11 -10 -15 -10 -8 -1 6 -23 14
-51 18 -44 6 -48 9 -35 22 8 8 12 19 9 25 -4 7 -10 4 -16 -6 -5 -9 -14 -14
-19 -10 -6 3 -17 -2 -25 -12 -12 -15 -16 -16 -21 -5 -3 7 -14 22 -24 32 -18
18 -18 19 -1 19 16 1 16 1 0 11 -20 11 -24 39 -7 56 15 15 -19 73 -42 73 -19
0 -89 61 -89 78 0 7 -6 11 -12 10 -7 -2 -14 7 -16 19 -2 13 -13 24 -28 27 -13
4 -24 11 -24 16 0 6 -4 10 -9 10 -14 0 -1 -37 20 -56 10 -9 19 -22 19 -27 0
-6 11 -25 25 -43 15 -20 21 -35 15 -39 -6 -4 -7 -12 -3 -18 4 -7 6 -22 5 -34
-2 -14 5 -27 17 -35 24 -15 29 -40 6 -32 -9 4 -15 0 -15 -8 0 -15 42 -19 56
-6 20 21 56 -14 48 -46 -5 -20 1 -26 37 -40 52 -21 48 -28 -8 -13 -26 6 -43
18 -46 29 -3 10 -11 18 -17 18 -7 0 -10 -6 -7 -13 9 -25 -98 12 -109 37 -5 11
-18 21 -29 22 -41 2 -45 4 -45 24 0 12 -14 29 -35 42 -19 13 -35 27 -35 31 0
5 -22 34 -50 66 -54 62 -58 71 -35 71 9 0 15 9 15 23 0 17 -2 19 -9 8 -5 -8
-17 -16 -26 -17 -16 -2 -15 7 3 55 3 8 1 12 -4 8 -20 -12 -58 41 -48 68 3 8 2
15 -4 15 -5 0 -9 8 -8 17 0 10 -5 17 -11 15 -8 -1 -13 8 -13 23 0 16 6 25 16
25 9 0 12 5 8 11 -4 7 -1 10 7 7 8 -3 13 -12 13 -21 -1 -9 4 -13 13 -10 8 3
21 -3 29 -13 9 -11 13 -13 9 -6 -9 17 11 15 41 -4 26 -18 46 -12 26 8 -18 18
-15 28 9 28 12 0 23 -8 26 -20 3 -11 11 -20 18 -20 8 0 11 8 8 20 -6 24 24 29
33 5 4 -9 27 -25 52 -36 36 -17 50 -19 64 -10 9 6 24 8 33 5 10 -4 15 0 15 10
0 9 6 16 13 16 7 0 18 9 25 21 11 16 16 18 28 9 11 -10 14 -9 14 9 0 23 10 27
27 10 7 -7 13 -8 17 0 4 6 20 8 35 5 17 -4 43 1 62 9 19 9 50 15 69 13 19 -1
45 1 57 5 12 5 25 4 28 -1 3 -5 12 -7 20 -4 7 3 22 1 33 -5 17 -9 19 -8 15 9
-5 21 11 28 22 10 13 -21 74 -11 97 15 21 25 45 35 32 14 -4 -8 -1 -8 13 -1
11 6 25 7 35 1 17 -9 39 5 52 33 5 10 7 10 12 1 7 -17 31 -17 37 0 3 7 23 19
46 26 23 6 41 17 41 22 0 6 7 9 15 5 8 -3 15 0 15 5 0 7 11 9 25 7 14 -3 28
-1 31 3 3 5 0 9 -5 9 -6 0 -11 4 -11 9 0 6 9 8 21 6 16 -3 19 0 13 17 -4 13
-2 18 4 14 6 -3 13 -2 17 3 3 6 12 8 19 5 7 -3 16 1 18 8 4 9 -5 14 -25 15
-38 3 -62 23 -28 23 17 0 22 4 17 16 -3 8 -2 12 4 9 6 -3 10 -1 10 4 0 6 -9
11 -20 11 -11 0 -20 5 -20 11 0 8 -4 9 -13 0 -17 -13 -28 -4 -20 17 5 11 2 14
-9 9 -23 -8 -29 16 -12 48 8 15 12 30 9 33 -3 3 -5 0 -5 -6 0 -7 -9 -12 -20
-12 -11 0 -20 6 -20 14 0 10 -7 12 -22 8 -20 -5 -20 -7 -5 -10 11 -2 16 -9 13
-18 -3 -8 -2 -12 3 -9 5 3 12 1 15 -4 4 -5 -7 -16 -24 -24 -31 -16 -39 -10
-18 11 16 16 2 28 -16 13 -11 -9 -15 -9 -19 1 -4 9 -6 9 -6 -2 -1 -17 -44 -40
-74 -40 -15 0 -18 5 -14 23 6 21 6 21 -8 3 -8 -11 -15 -25 -15 -32 0 -14 -8
-16 -103 -14 -65 1 -68 0 -62 -19 4 -14 1 -23 -9 -27 -9 -3 -13 -11 -10 -16 4
-6 -2 -8 -12 -6 -11 2 -19 8 -19 14 0 12 -22 34 -49 49 -17 10 -20 33 -3 27
10 -3 9 16 -2 22 -5 4 -12 0 -14 -6 -4 -10 -8 -9 -16 2 -9 13 -11 13 -11 -2 0
-11 -6 -15 -20 -11 -22 6 -27 23 -7 23 6 0 4 5 -6 11 -9 5 -21 8 -26 5 -5 -3
-14 0 -19 7 -6 7 -27 19 -46 27 -19 7 -37 21 -39 32 -3 10 -14 18 -24 18 -11
0 -29 9 -41 20 -12 11 -30 20 -42 20 -18 0 -25 10 -21 33 0 4 -3 7 -8 7 -13 0
-8 55 8 74 17 20 31 21 31 1 0 -18 12 -19 28 -3 9 9 15 9 23 1 8 -8 20 -9 37
-2 22 8 207 6 256 -4 10 -2 38 -1 62 3 24 4 41 3 38 -2 -3 -4 2 -8 10 -8 9 0
16 5 16 11 0 5 3 8 8 5 4 -2 16 2 26 10 15 10 16 16 8 27 -7 8 -9 17 -5 20 3
4 2 7 -4 7 -6 0 -10 11 -9 24 1 16 6 22 15 18 10 -4 13 -1 9 10 -5 12 6 18 48
27 29 7 58 10 63 7 12 -8 42 4 36 14 -6 10 51 18 66 9 9 -5 8 -12 -4 -24 -26
-25 -41 -58 -38 -79 2 -17 -2 -18 -43 -13 -25 4 -45 3 -45 -1 3 -20 -2 -33
-11 -27 -6 3 -17 0 -25 -8 -13 -13 -4 -15 72 -12 58 2 93 0 102 -8 12 -10 14
-9 8 5 -5 15 -2 16 18 8 16 -6 25 -6 25 0 0 6 6 9 13 7 6 -1 11 4 10 11 -2 6
6 12 17 12 18 0 64 23 80 40 3 3 18 11 33 19 16 9 26 20 23 28 -6 15 8 23 50
27 16 1 28 8 27 14 -2 7 9 12 27 12 23 0 30 4 30 20 0 16 4 18 23 11 26 -10
56 6 49 27 -2 7 5 16 17 19 12 3 21 11 21 19 0 7 11 16 25 20 14 3 25 10 25
15 0 10 31 12 54 3 9 -3 16 -12 16 -20 0 -8 5 -14 10 -14 6 0 10 -7 10 -16 0
-10 6 -14 15 -10 8 3 20 -1 27 -7 20 -20 46 -27 52 -14 2 7 5 2 5 -10 1 -18 6
-22 31 -20 29 2 37 22 9 22 -15 0 -34 23 -26 32 3 2 15 -1 27 -7 21 -11 22
-10 18 37 -2 40 0 48 14 47 9 -1 19 4 22 11 2 7 -2 12 -11 11 -9 0 -18 5 -20
12 -3 8 1 10 13 5 16 -6 16 -1 9 53 -10 75 -7 157 6 165 6 3 2 9 -10 12 -24 6
-32 -10 -18 -40 5 -12 7 -29 3 -38 -5 -15 -7 -15 -22 -1 -8 9 -20 13 -26 10
-5 -3 -30 2 -55 11 -36 14 -47 15 -53 5 -5 -7 -16 -14 -27 -15 -10 -1 -27 -6
-38 -12 -11 -6 -34 -14 -52 -18 -27 -5 -37 -2 -59 21 -23 22 -29 24 -38 13
-12 -16 -46 -21 -46 -8 0 5 -18 9 -39 9 -22 0 -51 4 -65 9 -13 6 -42 12 -63
15 -47 7 -123 28 -141 40 -7 4 -41 10 -75 13 -34 3 -66 9 -72 13 -10 8 -174
25 -205 22 -8 -1 -64 -4 -124 -7 -95 -4 -114 -2 -154 16 -25 12 -56 22 -69 23
-13 0 -23 6 -23 12 0 7 -6 14 -14 17 -9 4 -14 19 -13 41 1 37 2 38 75 37 24 0
42 4 42 11 0 7 15 9 45 5 35 -5 45 -3 45 7 0 8 6 16 13 19 9 3 9 7 -2 20 -12
15 -11 17 8 17 11 0 21 -4 21 -10 0 -5 6 -10 14 -10 9 0 12 7 9 21 -5 19 -3
20 18 14 13 -4 26 -12 27 -16 2 -5 8 -9 14 -9 6 0 8 7 4 15 -3 8 -1 15 4 15 5
0 6 7 3 17 -4 10 -2 14 4 10 6 -4 13 3 16 15 4 13 1 26 -6 30 -7 5 -3 8 12 8
20 0 22 3 13 12 -19 19 -15 41 7 35 14 -3 17 0 14 14 -4 14 0 19 15 19 11 0
28 3 37 6 13 5 14 9 3 15 -10 7 -7 11 10 15 12 4 22 11 22 17 0 8 3 8 11 0 9
-9 18 -7 38 7 18 13 49 20 104 23 43 2 83 9 90 16 6 6 21 11 34 11 13 0 23 5
23 10 0 6 11 10 25 10 14 0 25 4 25 9 0 5 15 19 33 30 18 11 40 33 47 48 8 15
23 38 33 50 15 16 17 25 8 40 -7 12 -10 13 -11 4 0 -11 -3 -11 -15 -1 -9 7
-14 19 -11 27 4 9 -1 12 -17 8 -12 -2 -38 -1 -57 4 -19 5 -29 9 -22 10 7 1 10
6 7 11 -5 8 -11 8 -20 0 -10 -8 -19 -8 -33 1 -17 10 -24 10 -38 -2 -11 -9 -15
-9 -10 -1 10 16 -12 16 -45 -1 -16 -9 -33 -11 -47 -6 -12 5 -22 5 -22 0 0 -5
-12 -16 -26 -26 -20 -13 -28 -14 -34 -5 -6 9 -13 9 -31 -2 -13 -7 -27 -17 -30
-22 -4 -5 -15 -5 -25 -1 -23 10 -55 7 -68 -6 -13 -12 -29 -12 -21 1 3 6 -1 10
-9 10 -9 0 -16 -5 -16 -11 0 -14 -39 -1 -64 23 -12 10 -22 14 -24 8 -6 -17
-32 -11 -32 8 0 14 2 15 10 2 5 -8 10 -10 10 -5 0 6 -4 15 -8 20 -9 12 -65 17
-57 5 3 -4 -4 -6 -15 -3 -11 3 -23 9 -26 14 -3 5 -14 4 -26 -2 -18 -9 -19 -8
-13 10 3 12 3 21 -2 20 -24 -4 -43 3 -43 15 0 8 -5 18 -12 22 -8 5 -9 2 -4
-12 7 -18 6 -18 -12 1 -10 11 -17 27 -14 35 5 13 4 13 -13 0 -16 -14 -17 -13
-11 8 5 13 3 22 -3 22 -6 0 -11 7 -11 16 0 8 -4 13 -10 9 -11 -7 -51 25 -44
36 2 5 -5 13 -16 19 -15 8 -20 19 -18 38 2 21 -1 27 -15 26 -17 -2 -17 -1 -1
17 14 16 15 20 1 33 -8 8 -16 13 -18 11 -2 -2 -4 21 -4 51 0 30 4 54 9 54 4 0
3 7 -4 15 -7 8 -8 15 -3 15 12 0 13 38 1 78 -6 21 -16 32 -28 32 -13 0 -17 5
-14 15 4 10 0 15 -11 15 -9 0 -13 5 -10 10 3 6 2 10 -4 10 -5 0 -16 3 -25 6
-10 4 -16 1 -16 -9 0 -9 -9 -19 -20 -22 -11 -4 -17 -11 -14 -17 5 -7 -1 -9
-16 -5 -34 9 -78 -3 -83 -22 -2 -10 -24 -22 -55 -31 -47 -12 -57 -20 -53 -42
0 -5 -8 -8 -20 -8 -15 0 -19 -5 -15 -15 3 -9 0 -15 -8 -15 -9 0 -12 -7 -9 -20
3 -11 9 -17 14 -14 5 3 9 1 9 -4 0 -5 -12 -10 -27 -11 -63 -4 -78 -9 -74 -22
2 -8 4 -19 4 -26 0 -6 7 -9 15 -5 10 3 13 1 8 -6 -4 -7 -14 -12 -22 -12 -8 0
-14 -4 -14 -10 0 -5 -5 -10 -11 -10 -13 0 -39 -25 -39 -38 0 -6 -7 -12 -15
-16 -8 -3 -15 -12 -15 -20 0 -10 -6 -13 -15 -10 -11 5 -13 2 -9 -10 3 -9 1
-16 -5 -16 -6 0 -11 -10 -11 -22 0 -19 -2 -20 -11 -8 -8 12 -9 12 -7 -5 4 -30
-10 -45 -40 -45 -15 0 -34 -4 -41 -9 -12 -8 -8 -11 14 -17 l29 -7 -39 -14
c-22 -7 -51 -11 -66 -8 -17 4 -30 1 -39 -9 -14 -18 -6 -23 45 -29 l30 -3 -27
-14 c-16 -7 -28 -19 -28 -26 0 -10 6 -10 28 2 31 16 42 18 42 6 0 -6 -18 -16
-70 -37 -3 -1 -21 -9 -40 -19 l-35 -17 35 7 c32 6 33 5 20 -10 -10 -13 -22
-16 -49 -11 -20 4 -40 11 -45 16 -6 5 -15 9 -20 9 -6 0 2 -8 17 -19 25 -16 26
-19 11 -25 -13 -5 -14 -10 -6 -18 8 -8 15 -8 26 1 8 7 17 8 20 3 3 -6 -2 -13
-12 -18 -24 -11 -92 -11 -92 1 0 5 -5 4 -12 -3 -14 -14 -58 -16 -58 -3 0 5 6
11 13 14 8 3 3 14 -16 35 -21 22 -25 32 -16 37 8 5 10 4 5 -3 -4 -7 -1 -12 8
-12 10 0 13 6 10 15 -4 8 -10 15 -15 15 -5 0 -8 10 -6 23 2 12 2 16 0 9 -3 -7
-8 -10 -13 -7 -5 3 -7 12 -3 20 3 8 0 15 -6 15 -6 0 -11 -5 -11 -12 0 -6 -10
-2 -23 10 -28 27 -52 28 -66 5 -6 -10 -11 -12 -11 -5 0 6 -7 12 -15 12 -21 0
-19 12 5 38 l21 22 -21 0 c-21 0 -28 24 -10 35 20 13 10 26 -12 14 -18 -9 -20
-9 -15 4 3 9 -2 21 -11 29 -10 8 -13 8 -9 1 9 -15 -7 -25 -27 -17 -21 8 -20
31 1 42 14 9 13 13 -10 36 -15 15 -27 31 -27 36 0 6 -7 10 -15 10 -8 0 -15 5
-15 10 0 6 5 10 10 10 18 0 11 18 -10 25 -29 9 -24 25 8 26 15 0 21 3 15 6 -7
2 -13 11 -13 18 0 7 -8 15 -18 17 -10 3 -18 15 -19 27 -1 12 2 19 8 16 5 -4 9
-2 9 2 0 10 -69 38 -87 37 -7 -1 -13 2 -13 7 0 5 6 9 14 9 9 0 12 7 9 20 -3
11 -12 20 -20 20 -10 0 -12 6 -8 19 5 15 2 18 -13 14 -18 -4 -29 12 -36 50 0
4 -8 12 -16 17 -10 7 -12 12 -4 18 13 8 15 44 2 36 -4 -3 -8 4 -8 15 0 10 -5
21 -12 23 -17 6 0 28 23 28 30 0 23 28 -8 32 l-28 4 35 17 c19 9 28 16 21 17
-10 0 -11 3 -5 9 5 6 24 6 44 2 l35 -8 -48 -14 c-47 -13 -47 -14 -20 -21 16
-5 29 -4 31 2 2 6 12 10 22 10 11 0 23 7 28 15 10 20 101 47 167 50 63 3 148
23 156 36 3 6 23 11 43 12 20 1 36 4 36 8 0 3 19 9 43 13 59 9 108 26 102 36
-3 4 5 10 16 13 15 4 19 2 15 -10 -5 -13 2 -14 46 -7 29 4 69 8 89 9 21 0 44
7 53 14 9 7 16 9 16 4 0 -5 15 -7 32 -5 29 4 30 6 13 14 -15 6 -11 7 13 3 18
-2 31 -1 28 4 -3 4 16 15 42 24 29 9 46 20 44 29 -3 10 -1 11 9 0 7 -6 20 -12
28 -11 10 0 11 2 4 5 -7 3 -9 12 -6 20 6 17 5 17 -48 -1 -23 -9 -72 -22 -108
-30 -36 -8 -76 -17 -89 -20 -21 -5 -22 -5 -5 15 10 11 26 20 36 20 10 0 15 5
12 10 -4 6 8 10 29 10 20 0 36 3 36 8 0 10 54 34 58 24 3 -11 86 -2 93 10 4 7
9 6 13 -1 4 -6 2 -11 -3 -11 -6 0 -11 -7 -11 -16 0 -11 5 -14 16 -10 9 3 31 6
50 6 46 0 43 18 -3 23 -23 2 -10 4 31 5 73 2 73 2 51 -50 -6 -16 -4 -17 24 -7
18 6 41 9 52 6 16 -4 18 -3 9 8 -14 17 10 22 70 17 38 -3 48 -9 63 -34 11 -19
14 -34 8 -37 -6 -4 -7 -21 -2 -43 7 -30 5 -40 -8 -53 -10 -8 -24 -15 -31 -15
-11 0 -11 -3 -2 -12 18 -18 15 -38 -5 -32 -10 2 -8 -1 5 -7 23 -12 30 -29 12
-29 -5 0 -10 -5 -10 -11 0 -6 -10 -19 -22 -28 -22 -18 -18 -41 8 -41 8 0 14
-4 14 -10 0 -5 -7 -10 -15 -10 -8 0 -15 -5 -15 -11 0 -5 10 -9 22 -7 15 2 23
-2 23 -12 0 -9 10 -16 25 -17 14 -1 19 0 13 3 -30 13 -9 33 52 49 51 14 63 21
54 31 -8 9 -5 18 10 33 12 12 21 30 21 40 0 11 4 22 9 25 5 3 9 22 8 42 -1 25
5 41 18 50 10 8 13 14 7 14 -9 0 -8 6 2 23 17 24 24 86 13 104 -4 7 0 16 10
22 10 6 12 11 6 11 -14 0 -18 50 -5 50 13 0 8 50 -5 58 -7 4 -10 17 -6 30 4
17 10 21 27 17 15 -5 17 -3 8 3 -10 7 -12 21 -6 58 5 27 8 59 8 72 0 12 3 22
7 22 4 0 12 14 18 30 8 25 7 32 -5 37 -11 4 -12 9 -3 19 9 11 8 14 -5 14 -9 0
-16 5 -16 10 0 6 10 10 23 10 16 0 18 3 8 9 -8 5 -15 32 -18 62 -3 43 0 57 14
66 16 12 16 13 0 13 -9 0 -17 5 -17 10 0 6 6 10 13 9 6 -1 18 -1 26 0 22 2
-19 30 -44 31 -19 1 -19 2 3 12 12 6 22 15 22 20 0 5 9 6 20 3 11 -4 20 -2 20
4 0 6 -7 11 -15 11 -20 0 -19 17 3 29 15 9 15 12 2 21 -8 5 -25 10 -37 10 -13
0 -23 5 -23 11 0 7 9 9 21 6 16 -4 18 -3 8 9 -6 7 -15 11 -20 8 -5 -3 -9 5 -9
16 0 15 -5 20 -14 17 -8 -3 -20 1 -26 9 -10 11 -9 14 8 14 12 0 24 5 27 10 9
15 -12 12 -47 -6 -18 -9 -27 -11 -23 -4 5 9 1 10 -16 5 -16 -4 -20 -3 -11 3
21 14 11 39 -33 86 -30 31 -42 39 -48 29 -4 -7 -15 -13 -24 -13 -11 0 -9 5 7
18 26 21 19 46 -11 37 -16 -5 -19 -1 -19 30 0 32 -2 35 -23 30 -20 -5 -27 1
-50 47 -15 29 -27 62 -27 72 0 15 -3 16 -14 7 -11 -9 -15 -9 -19 1 -4 10 -6
10 -6 1 -1 -8 -14 -13 -33 -13 l-31 0 24 -27 c20 -22 21 -25 5 -19 -10 3 -24
2 -31 -4 -9 -8 -15 -8 -20 0 -3 6 -11 8 -16 5 -8 -6 -13 17 -12 53 1 7 -4 12
-11 11 -43 -5 -65 2 -68 24 -3 20 -4 19 -10 -6 -4 -23 -1 -30 16 -37 19 -8 19
-9 -6 -9 -19 -1 -28 4 -28 14 0 18 -12 19 -27 4 -8 -8 -17 -7 -34 5 -16 11
-26 12 -35 5 -10 -8 -13 -2 -11 29 3 43 -1 43 -46 10 -17 -13 -17 -15 -3 -27
14 -12 16 -12 10 3 -3 9 -2 16 4 16 12 0 37 -68 29 -77 -3 -2 -15 5 -26 16
-24 24 -51 30 -31 6 6 -8 10 -20 8 -26 -2 -6 -28 11 -57 40 -29 28 -49 51 -44
51 15 -1 43 -27 44 -41 0 -8 4 -5 9 7 11 27 1 74 -16 74 -8 0 -14 -6 -14 -12
0 -9 -4 -8 -10 2 -9 13 -12 13 -21 -2 -5 -10 -17 -18 -24 -18 -20 0 -19 -16 1
-24 8 -3 13 -10 9 -16 -3 -5 -14 -2 -25 7 -10 9 -17 19 -15 22 2 3 -20 5 -48
4 -28 -2 -54 -8 -58 -15 -4 -6 -25 -12 -47 -12 -22 -1 -38 -4 -35 -8 5 -10
-11 -10 -21 -1 -24 25 -135 36 -121 12 3 -4 -3 -13 -14 -18 -30 -16 -33 -13
-15 14 13 21 14 29 3 60 -7 19 -19 35 -27 35 -12 0 -12 3 -1 17 12 15 12 16
-8 11 -14 -4 -23 -1 -26 11 -5 22 3 42 14 35 13 -8 11 10 -3 24 -9 9 -7 12 11
12 16 0 21 4 17 15 -3 8 -1 15 4 15 6 0 10 5 10 11 0 6 -7 9 -15 5 -8 -3 -15
-1 -15 4 0 6 9 10 19 10 11 0 21 5 23 11 2 6 16 12 31 12 15 0 27 2 27 6 -1
15 -19 33 -28 27 -5 -3 -13 1 -16 10 -5 14 -1 16 28 11 27 -4 34 -2 30 8 -3 7
4 19 16 25 17 9 21 18 17 39 -5 23 -2 27 15 27 15 -1 22 6 23 22 1 13 8 28 16
33 12 8 12 10 -1 19 -12 7 -12 12 -3 21 9 9 16 9 30 -2 17 -13 17 -12 0 8 -14
16 -15 23 -6 29 7 4 15 2 17 -4 6 -18 22 -4 22 19 0 25 44 26 60 2 9 -14 10
-8 7 30 -4 44 -3 48 14 44 21 -6 35 8 19 18 -5 3 -10 11 -10 17 0 7 9 2 21
-11 11 -12 26 -20 32 -18 12 4 14 10 16 65 0 17 5 32 10 32 5 0 7 -10 3 -22
-4 -18 -2 -20 16 -16 12 4 22 2 22 -3 0 -5 -4 -9 -10 -9 -5 0 -10 -4 -10 -10
0 -5 7 -10 15 -10 8 0 15 7 15 15 0 8 9 15 20 15 25 0 27 20 3 21 -10 1 -22 1
-27 0 -5 -1 -6 5 -2 14 3 9 6 25 6 36 0 12 9 21 25 25 14 3 25 13 25 21 0 10
-6 12 -22 8 -17 -6 -20 -4 -14 10 4 12 2 16 -8 12 -8 -3 -20 1 -26 9 -10 11
-10 14 1 14 17 0 24 66 7 76 -8 5 -9 -1 -4 -20 4 -18 3 -25 -4 -21 -5 3 -10
16 -10 28 0 16 -3 18 -9 9 -6 -10 -10 -7 -13 12 -3 15 -1 29 3 32 9 5 3 80 -8
98 -4 6 -10 0 -15 -14 -4 -14 -5 -2 -1 25 4 28 6 60 6 73 -1 16 3 22 13 18 11
-4 13 1 8 19 -6 24 -4 25 19 16 20 -8 24 -7 23 7 0 9 4 16 10 15 7 -1 19 12
28 30 8 18 16 26 16 18 0 -10 3 -11 13 -2 8 6 16 8 19 5 3 -3 5 3 5 13 -2 12
4 17 16 15 9 -2 20 4 23 13 3 8 12 15 20 15 8 0 14 5 14 11 0 5 9 9 19 7 10
-2 29 6 42 17 19 17 21 17 16 3 -5 -14 -2 -16 16 -9 12 5 25 19 28 32 4 13 7
18 8 12 1 -18 51 2 74 30 15 17 18 18 13 4 -5 -15 -3 -16 14 -7 11 6 20 15 20
20 0 6 5 10 12 10 6 0 19 7 29 16 16 14 36 21 67 23 6 1 12 8 12 16 0 17 60
35 95 29 14 -2 25 0 25 6 0 5 5 10 12 10 6 0 19 7 29 16 9 8 26 16 38 17 11 1
21 7 21 15 0 10 8 12 29 7 17 -4 32 -2 36 5 4 6 15 8 26 5 14 -5 21 0 27 16 6
15 11 18 16 11 5 -9 11 -8 22 3 9 9 25 13 38 9 14 -3 29 0 37 9 8 7 29 12 47
11 21 -1 41 4 51 14 23 23 53 28 45 7 -8 -20 13 -19 24 2 7 11 25 17 57 19 26
1 51 7 55 14 11 17 23 11 37 -19 11 -24 11 -24 12 -4 1 29 16 37 78 39 29 0
59 7 68 14 13 11 18 10 33 -4 20 -17 37 -22 28 -7 -12 19 84 26 97 7 5 -7 9
-8 15 -1 5 8 67 13 67 5 0 -8 50 -8 66 0 11 6 19 7 19 2 0 -11 36 -22 45 -14
12 12 85 13 85 1 0 -8 7 -6 19 5 14 13 21 14 27 5 5 -8 3 -10 -6 -4 -8 5 -11
4 -6 -3 7 -12 36 -5 36 8 0 5 17 3 37 -3 28 -9 37 -9 41 1 4 14 42 16 42 2 0
-5 -5 -9 -11 -7 -6 1 -14 -4 -16 -11 -4 -9 1 -10 22 -2 33 13 38 13 30 0 -3
-5 4 -11 17 -11 40 -2 44 -4 76 -29 19 -15 32 -34 32 -47 0 -13 5 -23 10 -23
6 0 10 6 10 13 0 28 17 40 39 28 11 -7 21 -16 21 -22 0 -13 68 -78 75 -71 3 3
5 1 5 -4 0 -5 10 -21 23 -35 12 -15 33 -40 46 -58 13 -17 30 -31 38 -31 8 0
11 -5 8 -10 -4 -6 2 -28 12 -49 15 -33 22 -39 43 -35 20 4 31 -4 60 -43 51
-69 56 -77 37 -70 -13 5 -13 -2 4 -52 14 -42 25 -57 39 -58 11 -1 20 2 20 8 0
23 17 4 43 -48 16 -32 37 -71 47 -88 10 -16 19 -37 19 -46 1 -9 10 -24 20 -33
10 -9 17 -25 14 -35 -2 -9 3 -23 11 -30 9 -8 16 -20 16 -28 0 -26 40 -92 60
-98 31 -10 24 -26 -7 -19 -27 7 -28 6 -10 -13 9 -11 17 -33 17 -49 0 -62 13
-104 41 -131 16 -15 29 -31 29 -35 0 -15 -29 -8 -39 10 -6 9 -11 12 -11 5 0
-6 9 -18 20 -26 11 -8 17 -17 14 -20 -4 -4 -1 -13 6 -22 7 -8 9 -15 5 -15 -4
0 3 -9 16 -21 17 -15 19 -19 7 -15 -11 3 -22 -2 -28 -14 -7 -12 -7 -19 0 -22
6 -2 13 -21 17 -43 3 -22 15 -46 25 -53 18 -13 18 -14 1 -28 -10 -7 -13 -14
-6 -14 6 0 15 -15 18 -32 4 -18 11 -37 15 -43 4 -5 10 -30 13 -54 3 -24 11
-47 18 -51 6 -4 8 -13 4 -19 -4 -7 0 -22 8 -34 8 -12 22 -60 31 -107 10 -47
24 -97 32 -112 8 -14 14 -37 14 -50 0 -13 4 -28 9 -33 5 -6 11 -28 14 -50 3
-22 10 -65 16 -95 27 -136 69 -531 80 -745 5 -103 12 -160 20 -163 6 -2 9 -7
6 -12 -3 -4 8 -13 25 -18 18 -7 32 -7 35 -1 4 5 0 9 -8 9 -8 0 -20 7 -27 15
-15 17 -7 19 21 5 11 -6 19 -7 19 -1 0 5 -7 12 -16 15 -8 3 -12 11 -9 16 4 6
3 16 -3 23 -11 15 -8 87 4 95 5 4 10 16 10 27 -1 14 6 20 21 19 19 0 24 8 33
49 8 40 8 52 -2 59 -7 4 -8 8 -3 8 14 0 19 124 6 149 -15 27 -50 16 -66 -23
-18 -43 -24 -26 -28 89 -1 28 -6 56 -10 63 -5 7 -3 12 4 12 7 0 9 9 6 22 -4
12 -1 28 5 35 6 7 8 22 5 33 -3 12 0 20 8 20 18 0 16 51 -3 73 -19 21 -9 35
13 17 13 -11 14 -10 8 5 -5 14 -3 17 10 12 19 -7 13 15 -16 55 -21 28 -16 51
8 41 19 -7 19 6 1 26 -24 27 -25 74 -1 65 21 -9 19 4 -9 40 -32 43 -42 76 -22
76 9 0 16 5 16 11 0 8 5 8 15 -1 18 -15 19 -9 3 25 -6 14 -15 25 -21 25 -5 0
-6 11 -3 24 3 14 2 28 -4 31 -5 3 -10 13 -10 21 0 8 -9 27 -20 42 -10 15 -22
41 -25 57 l-6 30 18 -32 c17 -33 37 -46 26 -17 -4 12 0 14 23 9 29 -6 29 -6 9
12 -25 22 -32 68 -9 59 21 -8 17 7 -7 27 -15 14 -18 21 -10 31 8 10 7 17 -4
26 -8 7 -15 21 -15 31 0 10 -4 21 -10 24 -5 3 -10 10 -10 15 0 12 30 1 53 -18
16 -15 17 -14 11 4 -3 10 -13 34 -22 52 -14 27 -15 34 -3 41 9 6 10 11 2 15
-6 4 -11 23 -11 41 0 24 -9 45 -30 68 -34 39 -37 49 -13 40 12 -5 15 -2 10 9
-4 12 -1 14 15 10 14 -3 19 -1 14 6 -4 7 -14 12 -21 12 -21 0 -33 30 -31 75 2
24 -3 47 -12 57 -13 16 -13 18 3 24 10 4 21 1 26 -7 5 -8 9 -9 9 -4 0 6 -20
50 -45 98 -25 48 -45 94 -45 101 0 8 -7 19 -16 27 -25 20 -68 113 -55 117 7 2
5 13 -7 30 -33 48 -45 89 -38 135 6 38 4 47 -16 65 -84 75 -97 90 -106 125 -6
21 -9 44 -7 50 6 16 -32 60 -45 52 -5 -3 -10 3 -10 14 0 11 -14 29 -31 41 -21
16 -29 29 -27 45 4 35 -53 110 -96 126 -20 7 -36 17 -36 23 0 5 -11 -1 -25
-14 -13 -12 -22 -27 -18 -33 3 -6 1 -7 -5 -3 -5 3 -13 0 -16 -6 -3 -7 -3 -2 0
12 4 14 13 33 22 43 14 15 13 17 -4 19 -10 0 -25 1 -31 1 -15 -1 -17 9 -4 22
16 16 -15 46 -47 47 -21 1 -29 5 -25 15 11 29 -58 83 -82 63 -11 -9 -12 -7 -8
10 4 16 2 19 -13 14 -11 -4 -15 -3 -11 2 4 4 -9 13 -29 19 -20 5 -35 12 -34
15 15 24 -82 96 -113 84 -10 -3 -14 1 -14 12 2 17 -11 26 -87 58 -42 19 -45
33 -2 17 38 -15 32 -6 -14 20 -22 13 -40 28 -40 35 0 18 -31 26 -47 12 -12
-10 -14 -9 -11 8 2 12 -10 36 -27 57 -17 19 -45 56 -64 80 -19 25 -40 43 -46
40 -7 -2 -15 3 -18 11 -4 9 -13 16 -22 16 -9 0 -26 7 -40 16 -23 15 -197 42
-290 45 -27 1 -69 10 -93 21 -121 54 -315 110 -415 119 -114 11 -381 18 -412
11z m185 -65 c0 -2 -17 -1 -37 1 -30 4 -34 6 -18 12 16 6 55 -3 55 -13z m90 3
c12 -8 9 -10 -12 -10 -16 0 -28 5 -28 10 0 13 20 13 40 0z m40 -10 c0 -5 -4
-10 -10 -10 -5 0 -10 5 -10 10 0 6 5 10 10 10 6 0 10 -4 10 -10z m7 -44 c4 -3
-11 -6 -33 -6 -22 0 -64 -7 -94 -16 -30 -8 -70 -16 -87 -17 -18 -1 -33 -5 -33
-9 0 -4 -6 -5 -14 -2 -8 3 -17 1 -21 -5 -3 -6 0 -11 7 -12 7 0 2 -5 -11 -10
-35 -14 -38 -3 -7 26 27 25 79 50 121 57 31 6 165 1 172 -6z m103 0 c0 -9 -30
-14 -35 -6 -4 6 3 10 14 10 12 0 21 -2 21 -4z m305 -26 c8 -13 -25 -13 -45 0
-12 8 -9 10 12 10 15 0 30 -4 33 -10z m-495 -44 c0 -2 -7 -7 -16 -10 -8 -3
-12 -2 -9 4 6 10 25 14 25 6z m931 -17 c27 -12 49 -26 49 -31 0 -5 -3 -8 -8
-6 -4 2 -28 11 -55 22 -26 10 -47 23 -47 27 0 13 5 12 61 -12z m109 -61 c0
-13 -23 -5 -28 10 -2 7 2 10 12 6 9 -3 16 -11 16 -16z m48 -30 c6 -17 10 -34
7 -36 -2 -3 -9 7 -14 22 -6 14 -15 26 -21 26 -5 0 -10 5 -10 10 0 23 27 8 38
-22z m-1004 -38 c-10 -4 -21 -6 -24 -3 -8 7 24 22 34 16 5 -4 1 -10 -10 -13z
m-884 -4 c0 -3 -4 -8 -10 -11 -5 -3 -10 -1 -10 4 0 6 5 11 10 11 6 0 10 -2 10
-4z m2034 -125 c4 -5 -3 -7 -14 -4 -23 6 -26 13 -6 13 8 0 17 -4 20 -9z m72
-358 c-8 -8 -36 5 -36 17 0 7 6 7 21 0 11 -7 18 -14 15 -17z m-2232 -955 c9
-36 7 -48 -10 -48 -11 0 -14 6 -9 20 4 12 1 27 -5 35 -10 12 -9 15 3 15 8 0
17 -10 21 -22z m3261 -9 c19 -36 12 -52 -10 -23 -14 18 -21 54 -10 54 2 0 12
-14 20 -31z m45 -104 c21 -25 1 -31 -22 -7 -18 18 -19 22 -6 22 8 0 21 -7 28
-15z m-10 -135 c0 -5 -2 -10 -4 -10 -3 0 -8 5 -11 10 -3 6 -1 10 4 10 6 0 11
-4 11 -10z m-3773 -546 c-7 -7 -37 7 -37 17 0 6 9 5 21 -1 11 -7 19 -14 16
-16z m28 6 c3 -5 1 -10 -4 -10 -6 0 -11 5 -11 10 0 6 2 10 4 10 3 0 8 -4 11
-10z m310 -40 c3 -5 1 -10 -4 -10 -6 0 -11 5 -11 10 0 6 2 10 4 10 3 0 8 -4
11 -10z m-80 -30 c-3 -5 -13 -10 -21 -10 -8 0 -14 5 -14 10 0 6 9 10 21 10 11
0 17 -4 14 -10z m1085 -480 c0 -5 -4 -10 -10 -10 -5 0 -10 5 -10 10 0 6 5 10
10 10 6 0 10 -4 10 -10z m-1020 -49 c0 -5 -6 -14 -14 -21 -8 -6 -12 -19 -10
-28 5 -15 4 -15 -9 1 -8 9 -19 17 -24 17 -6 0 -16 7 -24 16 -11 14 -9 15 24 9
25 -5 37 -4 37 4 0 6 5 11 10 11 6 0 10 -4 10 -9z m99 -25 c19 -23 -10 -38
-59 -30 -28 5 -37 10 -28 15 10 7 11 9 0 9 -7 0 -10 5 -7 10 9 15 81 12 94 -4z
m-52 -62 c-3 -3 -12 -4 -19 -1 -8 3 -5 6 6 6 11 1 17 -2 13 -5z m89 -70 c61
-20 77 -34 41 -34 -35 0 -108 30 -101 41 7 11 2 12 60 -7z m-76 -14 c21 -7 18
-8 -18 -9 -26 -1 -41 3 -37 9 7 11 19 11 55 0z m50 -170 c0 -5 -9 -6 -20 -3
-11 3 -17 9 -15 14 7 10 35 1 35 -11z m3450 -46 c0 -20 -13 -17 -27 5 -10 16
-9 18 8 14 10 -3 19 -12 19 -19z m-3320 -49 c0 -5 21 -10 47 -11 103 -1 193
-9 193 -17 0 -5 4 -5 10 -2 12 8 100 -31 100 -44 0 -5 -15 -10 -32 -10 -54 0
-78 -5 -78 -14 0 -5 -11 -7 -25 -5 -20 4 -24 1 -22 -16 2 -19 -2 -21 -42 -18
-29 3 -41 0 -37 -7 5 -7 1 -9 -9 -5 -8 4 -27 -1 -41 -11 -16 -10 -35 -14 -51
-10 -13 3 -22 2 -19 -3 3 -5 -9 -6 -27 -4 -30 5 -30 5 -8 14 20 7 21 10 10 24
-8 10 -15 12 -17 5 -2 -6 -12 -11 -23 -11 -10 0 -19 -5 -19 -11 0 -6 -9 -9
-20 -6 -11 3 -20 0 -20 -6 0 -6 -3 -7 -6 -4 -4 4 -1 14 7 23 13 16 11 17 -12
11 -14 -4 -29 -4 -32 0 -10 9 34 37 60 38 13 0 22 5 21 10 -2 6 -11 9 -21 8
-10 -2 -16 1 -12 6 3 5 1 12 -4 15 -22 14 -2 39 44 55 55 19 85 21 85 6z
m-150 -20 c0 -2 -9 -9 -20 -15 -12 -6 -20 -7 -20 -1 0 5 8 12 18 14 9 3 18 5
20 6 1 0 2 -1 2 -4z m3540 -67 c0 -22 -17 -41 -30 -33 -8 5 -6 12 7 25 22 23
23 23 23 8z m-3578 -34 c-12 -8 -28 -13 -35 -11 -7 3 -1 9 13 15 37 16 47 14
22 -4z m433 -76 c-22 -5 -48 -7 -58 -4 -10 2 -32 0 -48 -6 -48 -16 -46 0 1 20
37 15 52 17 94 8 l51 -10 -40 -8z m-415 -128 c0 -5 -7 -10 -16 -10 -8 0 -12 5
-9 10 3 6 10 10 16 10 5 0 9 -4 9 -10z m-155 -40 c-3 -5 -11 -10 -16 -10 -6 0
-7 5 -4 10 3 6 11 10 16 10 6 0 7 -4 4 -10z m-240 -70 c3 -6 -1 -7 -9 -4 -18
7 -21 14 -7 14 6 0 13 -4 16 -10z m-289 -21 c3 -6 17 -8 29 -5 14 4 27 1 31
-6 5 -8 2 -9 -9 -5 -10 3 -17 2 -17 -2 0 -5 6 -12 13 -14 24 -10 -32 -7 -59 3
-19 8 -30 8 -38 0 -7 -7 -1 -10 19 -10 15 0 26 -3 22 -6 -3 -4 -23 -3 -44 1
l-38 7 30 24 c33 26 50 30 61 13z m206 -8 c4 -3 -4 -7 -17 -7 -14 -1 -23 2
-20 6 3 5 -1 11 -7 14 -7 3 -2 3 12 0 14 -4 28 -9 32 -13z m1195 -353 c-3 -7
-5 -2 -5 12 0 14 2 19 5 13 2 -7 2 -19 0 -25z m-132 -121 c12 4 16 3 12 -4 -4
-6 -1 -16 7 -22 9 -8 13 -29 11 -62 -1 -27 2 -52 6 -55 13 -7 11 -24 -2 -24
-5 0 -7 6 -3 13 4 6 -3 2 -14 -10 -13 -13 -19 -29 -16 -38 5 -11 2 -14 -12 -8
-12 4 -15 3 -10 -5 5 -8 -2 -10 -21 -7 -47 7 -62 11 -69 18 -4 4 -22 7 -41 7
-24 0 -33 5 -35 18 -2 32 -4 37 -13 51 -5 10 -4 16 3 19 6 2 9 9 6 17 -3 7 -1
23 6 34 8 16 8 21 -2 22 -7 0 -4 4 7 9 11 5 14 9 8 9 -7 1 -13 6 -13 12 0 6
15 10 33 9 43 -3 97 10 97 23 0 5 8 0 19 -12 12 -14 25 -19 36 -14z m45 -193
c0 -2 -7 -4 -15 -4 -8 0 -15 4 -15 10 0 5 7 7 15 4 8 -4 15 -8 15 -10z m-1020
-203 c0 -5 -7 -11 -15 -15 -9 -3 -15 0 -15 9 0 8 7 15 15 15 8 0 15 -4 15 -9z
m4 -40 c4 -5 -3 -7 -14 -4 -23 6 -26 13 -6 13 8 0 17 -4 20 -9z m79 -75 c4
-10 1 -13 -8 -9 -8 3 -12 9 -9 14 7 12 11 11 17 -5z m257 -40 c0 -2 -7 -7 -16
-10 -8 -3 -12 -2 -9 4 6 10 25 14 25 6z m2380 -766 c0 -5 -2 -10 -4 -10 -3 0
-8 5 -11 10 -3 6 -1 10 4 10 6 0 11 -4 11 -10z m-1004 -46 c18 -15 18 -15 -5
-10 -17 3 -21 2 -13 -6 8 -8 22 -6 51 5 l39 16 13 -32 c33 -86 38 -101 34
-107 -2 -4 3 -16 11 -26 13 -16 15 -16 10 -2 -3 11 2 19 15 23 10 4 20 16 21
28 2 36 3 41 15 61 6 11 24 20 44 22 26 3 31 1 19 -7 -11 -8 -12 -12 -2 -16 6
-2 12 -11 12 -19 0 -9 5 -12 11 -9 7 5 8 -5 4 -29 -5 -24 -3 -36 4 -36 18 0 8
-24 -19 -42 -30 -22 -126 -26 -99 -5 15 11 15 15 3 32 -14 18 -14 18 -14 -1 0
-10 -9 -25 -20 -32 -11 -7 -20 -21 -20 -31 0 -42 -76 -64 -189 -55 -71 6 -80
9 -90 31 -8 18 -8 29 4 47 8 12 12 26 8 29 -3 4 1 7 10 7 11 0 18 12 23 36 4
19 13 38 20 41 8 3 14 13 14 22 0 15 48 79 61 80 3 1 14 -6 25 -15z m-236 -48
c0 -8 8 -16 18 -18 13 -4 21 -18 25 -44 11 -63 8 -84 -13 -111 -11 -14 -20
-21 -20 -15 0 11 -55 28 -77 24 -16 -3 -26 15 -13 23 8 5 6 13 -6 26 -16 18
-16 19 3 19 14 0 19 6 18 23 -1 14 -8 21 -19 19 -9 -2 -16 3 -16 10 0 15 44
38 72 38 12 0 15 5 11 17 -4 11 -3 14 5 9 7 -4 12 -13 12 -20z m590 15 c0 -17
-18 -21 -24 -6 -3 9 0 15 9 15 8 0 15 -4 15 -9z m-480 -91 c0 -5 -5 -10 -11
-10 -5 0 -7 5 -4 10 3 6 8 10 11 10 2 0 4 -4 4 -10z m-60 -132 c0 -5 -4 -8
-10 -8 -5 0 -10 10 -10 23 0 18 2 19 10 7 5 -8 10 -18 10 -22z m-77 -5 c-7 -2
-19 -2 -25 0 -7 3 -2 5 12 5 14 0 19 -2 13 -5z m-2320 -279 c-3 -8 1 -14 11
-14 30 0 16 -15 -15 -16 -17 -1 -25 2 -19 6 9 6 9 9 -1 12 -7 2 -10 11 -6 21
4 10 13 14 21 11 8 -3 12 -12 9 -20z m-13 -52 c0 -7 -57 -32 -74 -32 -18 0 8
21 37 29 18 5 33 10 35 10 1 1 2 -3 2 -7z m3970 -37 c0 -8 -4 -15 -10 -15 -5
0 -7 7 -4 15 4 8 8 15 10 15 2 0 4 -7 4 -15z m-4174 -11 c18 -15 18 -15 -5
-10 -16 3 -29 -1 -37 -12 -7 -9 -16 -13 -20 -9 -5 4 -2 12 5 16 7 5 10 14 7
20 -11 17 27 13 50 -5z m-20 -43 c-8 -12 -46 -21 -46 -11 0 5 10 11 23 13 12
2 23 5 25 6 2 0 1 -3 -2 -8z m-148 -63 c-41 -11 -49 -9 -30 10 13 14 21 16 35
8 16 -10 16 -12 -5 -18z m-448 1 c0 -5 -4 -9 -10 -9 -5 0 -10 7 -10 16 0 8 5
12 10 9 6 -3 10 -10 10 -16z m385 -9 c-3 -5 -21 -10 -38 -9 -31 1 -31 1 -7 9
36 11 52 11 45 0z m-505 -15 c0 -9 -10 -15 -22 -16 -17 -1 -19 -2 -5 -6 9 -2
17 -9 17 -14 0 -11 -47 -12 -54 -1 -7 11 21 45 33 38 5 -4 12 -2 16 4 9 14 15
12 15 -5z m3470 -5 c0 -5 -2 -10 -4 -10 -3 0 -8 5 -11 10 -3 6 -1 10 4 10 6 0
11 -4 11 -10z m-3250 -30 c0 -5 -5 -10 -11 -10 -5 0 -7 5 -4 10 3 6 8 10 11
10 2 0 4 -4 4 -10z m134 0 c-11 -11 -82 -27 -72 -15 6 6 25 12 78 24 2 1 0 -3
-6 -9z m-279 -48 c-8 -8 -25 10 -25 26 0 13 2 13 14 -4 8 -10 13 -21 11 -22z
m-78 -17 c-4 -8 -11 -15 -17 -15 -6 0 -6 7 2 20 14 22 24 19 15 -5z m193 21
c0 -2 -7 -6 -15 -10 -8 -3 -15 -1 -15 4 0 6 7 10 15 10 8 0 15 -2 15 -4z m-50
-27 c0 -5 -7 -6 -15 -3 -8 4 -15 2 -15 -4 0 -5 -14 -12 -32 -14 -27 -4 -29 -3
-14 7 10 8 13 14 6 17 -6 2 7 4 30 4 22 1 40 -2 40 -7z m-243 -21 c-3 -8 -6
-5 -6 6 -1 11 2 17 5 13 3 -3 4 -12 1 -19z m60 -20 c-3 -8 -6 -5 -6 6 -1 11 2
17 5 13 3 -3 4 -12 1 -19z m-84 -15 c-7 -2 -21 -2 -30 0 -10 3 -4 5 12 5 17 0
24 -2 18 -5z m47 -7 c0 -8 -7 -16 -15 -20 -12 -4 -13 -2 -2 14 14 24 17 25 17
6z m-99 -14 c-7 -2 -18 1 -23 6 -8 8 -4 9 13 5 13 -4 18 -8 10 -11z m59 -17
c0 -5 -55 -29 -91 -39 -22 -7 -23 -6 -4 5 11 7 36 19 55 26 42 15 40 14 40 8z
m-270 -25 c0 -5 -4 -10 -10 -10 -5 0 -10 5 -10 10 0 6 5 10 10 10 6 0 10 -4
10 -10z m3096 -22 c4 -6 3 -8 -3 -5 -6 4 -15 -5 -22 -19 -6 -14 -16 -22 -21
-19 -15 9 -12 25 5 25 9 0 12 6 9 15 -7 18 21 21 32 3z m-3029 -30 c-3 -8 -6
-5 -6 6 -1 11 2 17 5 13 3 -3 4 -12 1 -19z m-117 -13 c-14 -17 -30 -20 -30 -4
0 5 4 8 9 4 5 -3 12 -1 16 5 3 5 9 10 12 10 3 0 0 -7 -7 -15z m-160 -5 c0 -5
-7 -10 -16 -10 -8 0 -12 5 -9 10 3 6 10 10 16 10 5 0 9 -4 9 -10z m53 -41 c-5
-5 -17 -3 -29 6 -14 11 -15 14 -3 9 10 -3 21 0 25 7 6 11 8 11 12 0 2 -7 0
-17 -5 -22z m62 21 c4 -6 -6 -10 -22 -9 -25 0 -26 1 -8 9 11 5 21 9 22 9 1 1
5 -3 8 -9z m-92 -37 c-7 -2 -19 -2 -25 0 -7 3 -2 5 12 5 14 0 19 -2 13 -5z
m-193 -127 c0 -2 -11 -6 -25 -8 -13 -3 -22 -1 -19 3 5 9 44 13 44 5z m-91 -30
c-2 -2 -22 -7 -44 -10 l-40 -6 40 13 c36 12 55 13 44 3z m-137 -35 c-29 -9
-61 -24 -72 -33 -32 -28 -77 -48 -107 -48 -20 0 -24 3 -14 9 8 5 20 7 28 4 7
-3 13 0 13 6 0 6 6 8 14 5 9 -3 20 3 28 15 7 12 20 21 29 21 8 0 19 3 23 8 11
11 68 30 91 31 11 0 -4 -8 -33 -18z m4015 -187 c-3 -3 -12 -4 -19 -1 -8 3 -5
6 6 6 11 1 17 -2 13 -5z m3 -29 c0 -8 -4 -15 -9 -15 -5 0 -14 7 -21 15 -10 13
-9 15 9 15 12 0 21 -6 21 -15z"/>
<path d="M3538 4963 c7 -3 16 -2 19 1 4 3 -2 6 -13 5 -11 0 -14 -3 -6 -6z"/>
<path d="M3530 4898 c0 -15 18 -17 30 -3 9 11 8 14 -9 12 -12 -1 -21 -5 -21
-9z"/>
<path d="M4957 2561 c-4 -17 -3 -21 5 -13 5 5 8 16 6 23 -3 8 -7 3 -11 -10z"/>
<path d="M3245 8180 c-3 -6 1 -7 9 -4 18 7 21 14 7 14 -6 0 -13 -4 -16 -10z"/>
<path d="M4296 7603 c-6 -14 -5 -15 5 -6 7 7 10 15 7 18 -3 3 -9 -2 -12 -12z"/>
<path d="M4088 7533 c7 -3 16 -2 19 1 4 3 -2 6 -13 5 -11 0 -14 -3 -6 -6z"/>
<path d="M6110 7356 c0 -2 8 -10 18 -17 15 -13 16 -12 3 4 -13 16 -21 21 -21
13z"/>
<path d="M6150 7300 c0 -5 5 -10 11 -10 5 0 7 5 4 10 -3 6 -8 10 -11 10 -2 0
-4 -4 -4 -10z"/>
<path d="M3480 7130 c0 -5 4 -10 9 -10 6 0 13 5 16 10 3 6 -1 10 -9 10 -9 0
-16 -4 -16 -10z"/>
<path d="M3514 6961 c3 -5 15 -7 26 -4 28 7 25 13 -6 13 -14 0 -23 -4 -20 -9z"/>
<path d="M6880 6580 c6 -11 13 -20 16 -20 2 0 0 9 -6 20 -6 11 -13 20 -16 20
-2 0 0 -9 6 -20z"/>
<path d="M3328 6543 c6 -2 18 -2 25 0 6 3 1 5 -13 5 -14 0 -19 -2 -12 -5z"/>
<path d="M3295 6070 c3 -5 8 -10 11 -10 2 0 4 5 4 10 0 6 -5 10 -11 10 -5 0
-7 -4 -4 -10z"/>
<path d="M3424 6059 c-3 -5 -1 -9 4 -9 5 0 12 -9 15 -20 3 -13 14 -20 28 -20
17 0 20 3 12 11 -6 6 -9 17 -7 24 6 14 -43 27 -52 14z"/>
<path d="M3285 6040 c-3 -5 3 -10 15 -10 17 0 20 -4 15 -21 -5 -15 -4 -19 4
-15 6 4 11 18 11 32 0 17 -5 24 -19 24 -11 0 -23 -4 -26 -10z"/>
<path d="M3107 6028 c4 -7 8 -16 8 -20 0 -5 3 -8 8 -8 4 0 17 0 28 0 18 0 19
3 9 14 -6 8 -18 12 -26 9 -8 -3 -14 0 -14 6 0 6 -5 11 -11 11 -6 0 -7 -5 -2
-12z"/>
<path d="M3590 6010 c0 -5 5 -10 10 -10 6 0 10 5 10 10 0 6 -4 10 -10 10 -5 0
-10 -4 -10 -10z"/>
<path d="M5950 5960 c-12 -8 -10 -10 8 -10 13 0 20 -4 17 -10 -4 -6 -19 -9
-33 -8 -15 1 -34 -2 -42 -8 -11 -7 -5 -11 25 -16 28 -5 19 -6 -26 -3 -36 2
-70 0 -75 -5 -5 -5 -58 -11 -119 -14 -60 -2 -117 -7 -125 -10 -8 -2 -36 -6
-62 -8 -46 -3 -52 1 -49 30 3 22 -19 12 -25 -12 -3 -13 -14 -26 -24 -29 -13
-3 -17 0 -13 9 7 19 -24 29 -50 15 -23 -12 -49 -19 -110 -28 -34 -5 -37 -8
-24 -20 13 -13 13 -19 -2 -44 -9 -16 -22 -29 -30 -29 -8 0 -12 3 -8 6 3 4 -1
13 -9 21 -13 14 -17 13 -34 -2 -11 -10 -20 -24 -20 -32 0 -7 -5 -13 -11 -13
-6 0 -9 9 -6 20 6 24 -8 36 -17 14 -3 -8 -11 -12 -17 -8 -7 4 -9 0 -5 -12 8
-27 -18 -58 -41 -49 -16 6 -15 8 7 17 24 9 24 10 6 20 -15 9 -22 6 -37 -13
-10 -13 -19 -30 -19 -36 0 -7 -4 -13 -9 -13 -5 0 -12 6 -14 13 -4 10 -6 10 -6
0 -1 -7 -5 -13 -11 -13 -5 0 -9 3 -7 8 1 4 -3 8 -8 9 -6 1 -9 -13 -7 -32 2
-20 -1 -35 -7 -35 -6 0 -8 -6 -6 -12 2 -7 -7 -22 -22 -32 -14 -11 -23 -14 -19
-8 4 7 2 12 -3 12 -6 0 -11 -20 -11 -45 0 -50 6 -57 20 -22 8 19 9 20 9 3 1
-11 -7 -28 -16 -39 -10 -11 -13 -17 -6 -14 6 4 14 3 17 -2 7 -11 -13 -9 -31 2
-8 5 -13 4 -13 -2 0 -6 -14 -11 -31 -11 -16 0 -28 -4 -25 -9 8 -12 55 -20 62
-10 9 15 24 10 18 -6 -4 -10 0 -15 12 -15 11 0 28 -7 38 -15 12 -9 15 -15 7
-15 -11 0 -11 -3 -1 -15 10 -12 9 -15 -5 -15 -17 0 -17 -1 -2 -18 13 -15 14
-21 4 -31 -9 -10 -9 -15 0 -18 8 -3 9 -12 3 -28 -6 -16 -5 -25 2 -27 15 -5 18
-42 8 -95 -5 -27 -4 -43 2 -43 6 0 8 -11 4 -23 -4 -19 0 -26 20 -36 18 -8 23
-8 18 0 -4 7 0 9 12 5 30 -9 96 -9 127 -1 31 8 34 0 10 -27 -29 -32 -7 -36
118 -23 l66 7 12 -31 c8 -17 20 -31 27 -31 8 0 14 -5 14 -11 0 -6 7 -8 17 -5
9 4 19 3 22 -2 3 -5 17 -13 29 -17 20 -6 23 -4 20 12 -2 10 -10 17 -16 16 -7
-2 -12 1 -12 6 0 5 18 9 41 9 56 1 94 34 52 45 -12 3 -10 5 7 6 14 1 72 4 130
7 105 5 146 6 209 4 19 0 49 4 66 10 49 16 210 13 265 -5 14 -4 43 -21 65 -36
43 -31 160 -69 210 -69 28 0 28 1 10 14 -11 7 -38 19 -60 26 -49 15 -101 46
-108 64 -5 13 8 14 93 0 41 -7 44 -6 31 9 -7 9 -11 24 -7 32 3 9 0 15 -10 15
-8 0 -20 14 -25 30 -6 17 -15 30 -21 30 -15 0 -35 24 -31 37 2 6 -6 14 -18 18
-17 6 -19 9 -8 16 11 7 10 9 -4 9 -9 0 -25 9 -34 20 -10 11 -25 20 -35 20 -10
0 -17 5 -16 12 2 7 -7 17 -19 23 -13 5 -23 13 -23 16 0 4 -9 5 -20 2 -14 -4
-20 -1 -18 8 2 7 -6 15 -17 17 -11 2 -24 11 -29 19 -6 12 -10 12 -16 3 -6 -9
-13 -9 -31 3 -13 8 -46 18 -74 22 -27 4 -59 8 -70 9 -103 14 -132 20 -142 28
-6 5 -27 7 -45 5 -18 -2 -40 0 -48 4 -56 26 -70 30 -92 28 -27 -4 -61 17 -52
32 3 5 -2 9 -12 9 -13 0 -14 3 -5 14 7 8 21 12 34 9 18 -5 20 -3 10 8 -19 19
-16 29 9 29 12 0 18 3 15 7 -4 3 -2 12 4 19 7 9 5 14 -10 19 -12 3 -21 11 -21
16 0 6 5 7 10 4 6 -3 10 -2 10 3 0 12 35 24 74 26 16 0 31 7 34 14 2 6 15 12
28 12 16 0 23 4 18 11 -5 8 -1 8 14 0 27 -14 62 -14 62 0 0 7 -10 9 -27 5 -27
-6 -27 -6 -9 9 23 17 36 19 36 5 0 -13 57 -13 65 0 3 5 24 14 45 20 22 6 40
15 40 20 0 6 15 10 33 10 31 0 30 -1 -19 -24 -57 -27 -76 -46 -45 -46 11 0 22
4 25 9 3 5 15 11 27 14 20 5 20 5 2 -15 -18 -21 -18 -21 2 -13 11 4 30 10 43
12 12 3 22 11 22 19 0 7 5 16 10 19 7 4 9 -2 4 -19 -7 -31 -6 -31 46 -10 23 9
44 14 47 10 4 -3 -2 -6 -13 -6 -16 0 -17 -2 -4 -10 12 -8 10 -10 -8 -10 -13 0
-20 -4 -17 -10 3 -5 1 -10 -4 -10 -6 0 -11 -7 -11 -17 0 -15 1 -15 18 0 22 20
46 23 37 5 -4 -7 2 -2 13 11 16 20 22 22 41 12 23 -13 45 -6 36 10 -4 5 -2 9
4 9 6 0 15 -9 21 -21 10 -18 17 -20 64 -14 29 4 68 3 87 -3 46 -12 99 -4 92
14 -3 9 -20 14 -43 14 -22 0 -42 5 -46 12 -5 8 0 9 14 6 23 -7 30 6 10 16 -10
5 -10 7 0 12 22 10 13 22 -23 28 -38 7 -39 26 -2 26 18 0 19 2 7 10 -8 5 -25
10 -36 10 -12 0 -24 7 -28 15 -3 8 -12 15 -19 15 -8 0 -20 7 -27 14 -19 23
-99 59 -120 53 -12 -3 -17 0 -14 8 7 16 -95 33 -105 17 -3 -6 -20 -13 -36 -17
-21 -5 -26 -4 -16 3 12 9 12 12 0 24 -33 31 -45 37 -59 28z m221 -95 l34 -14
-37 -1 c-20 0 -44 3 -54 7 -16 6 -16 7 2 14 10 4 20 8 20 8 1 1 17 -6 35 -14z
m-114 -1 c-3 -3 -12 -4 -19 -1 -8 3 -5 6 6 6 11 1 17 -2 13 -5z m44 -31 c6 -6
7 -13 2 -16 -4 -2 -16 4 -26 14 -16 15 -16 17 -3 15 9 -1 21 -7 27 -13z m-836
-11 c-3 -3 -11 0 -18 7 -9 10 -8 11 6 5 10 -3 15 -9 12 -12z m695 1 c-8 -3
-23 -14 -33 -24 -16 -17 -97 -28 -97 -14 0 16 70 45 105 44 22 0 33 -3 25 -6z
m340 -13 c0 -5 -4 -10 -10 -10 -5 0 -10 5 -10 10 0 6 5 10 10 10 6 0 10 -4 10
-10z m-120 -70 c-20 -13 -57 -13 -65 0 -4 6 11 10 37 10 31 0 39 -3 28 -10z
m-326 -25 c-7 -16 -24 -21 -24 -6 0 8 7 13 27 20 1 1 0 -6 -3 -14z m451 -15
c-28 -12 -55 -12 -55 0 0 6 17 10 38 9 30 0 33 -2 17 -9z m85 6 c0 -2 3 -12 7
-21 5 -15 1 -16 -28 -10 -40 9 -43 10 -34 24 6 10 55 16 55 7z m-726 -31 c-4
-8 -14 -15 -23 -15 -14 1 -13 3 3 15 25 19 27 19 20 0z m210 -341 c33 -8 75
-22 93 -30 17 -7 34 -14 39 -14 27 0 160 -106 165 -132 1 -5 2 -12 3 -17 0 -5
4 -13 9 -17 4 -4 7 -11 7 -16 0 -4 -25 8 -56 28 -31 20 -82 47 -112 61 -31 13
-68 33 -83 44 -15 10 -38 19 -51 19 -12 0 -49 9 -81 20 -32 11 -87 20 -123 21
-37 1 -60 5 -53 10 7 4 16 6 20 4 3 -3 23 5 45 15 46 24 96 25 178 4z m-176
-207 c2 -10 -3 -17 -12 -17 -10 0 -16 9 -16 21 0 24 23 21 28 -4z m-345 -147
c-3 -11 -9 -20 -14 -20 -14 0 -11 28 4 33 6 3 13 6 14 6 0 1 -1 -8 -4 -19z
m132 0 c3 -5 1 -10 -4 -10 -6 0 -11 5 -11 10 0 6 2 10 4 10 3 0 8 -4 11 -10z"/>
<path d="M5890 5810 c0 -5 5 -10 11 -10 5 0 7 5 4 10 -3 6 -8 10 -11 10 -2 0
-4 -4 -4 -10z"/>
<path d="M5845 5940 l-30 -8 33 -1 c17 0 32 4 32 9 0 6 -1 9 -2 9 -2 -1 -16
-5 -33 -9z"/>
<path d="M3901 5918 c-1 -16 4 -28 9 -28 12 0 12 8 0 35 -8 18 -9 17 -9 -7z"/>
<path d="M5195 5800 c4 -6 11 -8 16 -5 14 9 11 15 -7 15 -8 0 -12 -5 -9 -10z"/>
<path d="M4220 5700 c0 -5 5 -10 11 -10 5 0 7 5 4 10 -3 6 -8 10 -11 10 -2 0
-4 -4 -4 -10z"/>
<path d="M6516 5695 c25 -19 35 -19 28 0 -4 8 -16 15 -27 15 -20 0 -20 0 -1
-15z"/>
<path d="M5868 5663 c7 -3 16 -2 19 1 4 3 -2 6 -13 5 -11 0 -14 -3 -6 -6z"/>
<path d="M6524 5641 c5 -8 56 -3 56 5 0 2 -14 4 -31 4 -16 0 -28 -4 -25 -9z"/>
<path d="M6185 5620 c-8 -13 15 -13 35 0 12 8 11 10 -7 10 -12 0 -25 -4 -28
-10z"/>
<path d="M6140 5600 c0 -5 4 -10 9 -10 6 0 13 5 16 10 3 6 -1 10 -9 10 -9 0
-16 -4 -16 -10z"/>
<path d="M6295 5599 c-16 -6 -14 -8 13 -8 33 -1 41 4 20 12 -7 2 -22 1 -33 -4z"/>
<path d="M6484 5588 c-3 -4 13 -8 35 -8 23 0 41 2 41 4 0 8 -71 12 -76 4z"/>
<path d="M6398 5583 c6 -2 18 -2 25 0 6 3 1 5 -13 5 -14 0 -19 -2 -12 -5z"/>
<path d="M4568 5548 c5 -5 16 -8 23 -6 8 3 3 7 -10 11 -17 4 -21 3 -13 -5z"/>
<path d="M4450 5526 c0 -2 9 -6 20 -9 11 -3 18 -1 14 4 -5 9 -34 13 -34 5z"/>
<path d="M4450 5470 c0 -5 5 -10 11 -10 5 0 7 5 4 10 -3 6 -8 10 -11 10 -2 0
-4 -4 -4 -10z"/>
<path d="M4480 5400 c20 -13 33 -13 25 0 -3 6 -14 10 -23 10 -15 0 -15 -2 -2
-10z"/>
<path d="M5545 4970 c3 -5 -1 -10 -10 -10 -32 0 -8 -25 26 -28 23 -2 30 0 20
6 -10 7 -10 11 -1 14 7 2 0 9 -15 16 -14 7 -23 8 -20 2z"/>
<path d="M5608 4923 c6 -2 18 -2 25 0 6 3 1 5 -13 5 -14 0 -19 -2 -12 -5z"/>
<path d="M5185 4900 c-3 -6 -15 -10 -25 -10 -10 0 -21 -4 -24 -9 -9 -14 4 -41
20 -41 25 0 15 -18 -13 -25 -28 -7 -28 -7 -5 -16 12 -5 27 -20 32 -34 6 -15
15 -23 23 -19 10 3 17 -4 21 -20 5 -19 13 -26 31 -26 13 0 31 -10 39 -22 9
-12 16 -19 16 -15 0 4 14 1 30 -8 17 -9 30 -13 30 -10 0 3 13 -1 30 -10 39
-20 47 -19 25 5 -18 20 -17 20 8 20 44 0 39 18 -5 19 -77 1 -93 5 -103 28 -5
12 -17 24 -27 26 -10 3 -18 10 -18 16 0 17 66 13 80 -4 7 -8 9 -15 4 -16 -5 0
18 -9 51 -20 33 -10 68 -17 78 -15 9 2 17 0 17 -5 0 -5 -7 -9 -15 -9 -8 0 -15
-4 -15 -9 0 -4 25 -11 57 -15 31 -4 70 -13 87 -20 50 -22 65 -26 71 -17 2 5
-11 12 -30 15 -37 7 -46 22 -17 29 9 3 -2 5 -25 6 -23 0 -44 5 -47 10 -4 5
-14 8 -23 7 -9 -2 -25 6 -35 16 -10 10 -23 16 -28 13 -6 -4 -10 -1 -10 6 0 8
12 9 43 4 56 -11 315 -7 336 5 14 8 14 10 1 11 -8 1 -1 4 15 8 30 7 29 7 -20
23 -27 9 -70 19 -95 23 -25 3 -54 8 -65 9 -11 2 -26 -1 -32 -7 -9 -7 -13 -5
-13 7 0 11 -9 16 -30 16 -17 0 -30 -5 -30 -12 0 -9 -3 -9 -9 1 -5 8 -23 14
-39 14 -22 0 -32 6 -36 20 -3 14 -10 17 -25 12 -15 -4 -28 1 -46 19 -21 21
-27 23 -37 12 -11 -11 -15 -11 -25 3 -8 12 -31 17 -92 18 -45 2 -83 -1 -86 -7z
m36 -110 c28 4 62 0 55 -7 -10 -10 -87 -12 -80 -2 3 5 0 9 -6 9 -6 0 -8 5 -4
11 5 8 9 8 14 -1 4 -6 13 -11 21 -10z m409 16 c0 -3 -4 -8 -10 -11 -5 -3 -10
-1 -10 4 0 6 5 11 10 11 6 0 10 -2 10 -4z"/>
<path d="M5459 4908 c-8 -27 -5 -35 12 -31 15 4 17 8 8 19 -11 13 -18 17 -20
12z"/>
<path d="M5510 4870 c19 -13 30 -13 30 0 0 6 -10 10 -22 10 -19 0 -20 -2 -8
-10z"/>
<path d="M5459 4611 c15 -14 37 -21 65 -21 25 0 51 -8 66 -20 30 -23 57 -26
57 -5 0 8 -9 15 -19 15 -11 0 -31 6 -46 14 -15 7 -45 16 -67 19 -22 3 -49 8
-60 12 -17 6 -17 4 4 -14z"/>
<path d="M5698 4553 c6 -2 18 -2 25 0 6 3 1 5 -13 5 -14 0 -19 -2 -12 -5z"/>
<path d="M5887 4499 c7 -7 15 -10 18 -7 3 3 -2 9 -12 12 -14 6 -15 5 -6 -5z"/>
<path d="M4055 4450 c3 -5 8 -10 11 -10 2 0 4 5 4 10 0 6 -5 10 -11 10 -5 0
-7 -4 -4 -10z"/>
<path d="M2690 4340 c0 -5 6 -10 14 -10 8 0 18 5 21 10 3 6 -3 10 -14 10 -12
0 -21 -4 -21 -10z"/>
<path d="M4145 4340 c-3 -5 -2 -10 4 -10 5 0 13 5 16 10 3 6 2 10 -4 10 -5 0
-13 -4 -16 -10z"/>
<path d="M4084 4288 c-5 -8 -2 -9 9 -5 10 3 17 2 17 -4 0 -6 5 -7 11 -3 8 4 7
9 -2 15 -19 12 -27 11 -35 -3z"/>
<path d="M4165 4010 c3 -5 8 -10 11 -10 2 0 4 5 4 10 0 6 -5 10 -11 10 -5 0
-7 -4 -4 -10z"/>
<path d="M5360 3890 c0 -5 5 -10 11 -10 5 0 7 5 4 10 -3 6 -8 10 -11 10 -2 0
-4 -4 -4 -10z"/>
<path d="M5422 3867 c9 -10 15 -24 12 -32 -4 -8 -1 -15 5 -15 18 0 13 -20 -11
-42 -13 -11 -17 -17 -10 -13 7 4 12 0 12 -9 0 -9 4 -16 10 -16 5 0 25 -14 45
-31 24 -22 34 -37 30 -49 -4 -12 4 -27 21 -43 18 -17 22 -27 15 -32 -9 -5 -9
-10 0 -21 14 -17 6 -18 -24 -3 -19 9 -18 7 3 -10 55 -44 85 -82 87 -110 1 -13
12 -34 24 -47 12 -13 19 -29 16 -37 -3 -7 6 -22 19 -32 13 -10 24 -28 24 -41
0 -17 6 -24 20 -24 13 0 20 -7 20 -20 0 -11 8 -28 18 -38 10 -10 16 -24 14
-31 -5 -16 24 -77 51 -102 l22 -22 -22 6 c-13 3 -23 1 -23 -4 0 -5 4 -9 9 -9
5 0 20 -21 33 -47 13 -27 26 -49 30 -51 4 -2 17 -24 29 -48 12 -25 32 -50 45
-56 13 -6 21 -15 18 -19 -3 -5 4 -9 15 -9 12 0 21 -5 21 -10 0 -6 11 -8 26 -4
19 5 25 4 20 -5 -4 -6 -1 -11 8 -11 9 0 16 5 16 12 0 6 10 2 23 -10 32 -30 37
-28 37 13 0 25 4 33 14 29 23 -9 28 14 6 26 -11 6 -20 19 -20 30 0 17 3 18 31
8 17 -6 33 -17 36 -24 3 -9 13 -12 28 -8 19 5 23 2 19 -13 -5 -18 28 -63 47
-63 6 0 17 6 25 14 7 8 19 16 26 18 19 7 1 38 -22 38 -11 0 -20 5 -20 10 0 13
6 13 31 0 13 -7 19 -7 19 0 0 5 6 10 14 10 8 0 16 5 18 12 3 7 18 13 34 14 40
3 41 3 25 13 -7 5 -25 4 -41 -2 -21 -8 -35 -7 -63 6 -32 15 -36 22 -39 59 -2
23 -9 43 -15 46 -7 2 -13 -3 -13 -10 0 -10 -11 -14 -35 -13 -27 0 -35 -3 -35
-17 0 -9 9 -23 21 -32 l21 -14 -21 -21 c-25 -25 -41 -27 -41 -6 0 8 4 15 10
15 5 0 7 7 3 16 -3 9 -13 14 -23 11 -9 -2 -28 4 -41 14 -22 17 -23 19 -4 19
17 0 18 2 5 11 -12 9 -12 10 3 5 10 -3 21 -6 23 -6 3 0 2 -4 -1 -10 -3 -5 1
-10 10 -10 10 0 15 7 13 18 -4 24 -17 36 -65 57 -25 11 -39 23 -36 31 3 8 -2
11 -16 7 -18 -5 -19 -3 -8 21 12 27 54 38 44 12 -3 -8 0 -20 8 -26 10 -8 14
-8 18 2 3 10 8 10 17 2 8 -8 9 -14 1 -18 -21 -13 -11 -26 14 -20 18 4 27 1 31
-10 5 -13 9 -14 21 -4 11 9 16 9 23 -2 5 -8 12 -11 17 -7 4 4 1 17 -6 28 -15
25 -9 33 26 34 36 0 39 19 6 34 -65 30 -98 50 -96 60 2 6 -2 11 -7 11 -6 0
-10 7 -10 15 0 11 -10 13 -45 10 -26 -3 -45 -1 -45 5 0 6 9 10 19 10 33 0 36
33 4 36 -7 1 -22 2 -32 3 -10 0 -29 10 -42 22 l-24 20 23 -5 c12 -4 31 -8 41
-11 15 -5 18 -2 14 13 -3 12 -20 24 -45 31 -39 12 -40 13 -19 27 27 19 27 34
0 34 -11 0 -17 5 -14 10 3 6 -1 10 -10 10 -8 0 -18 6 -21 13 -2 7 -16 14 -30
15 -37 3 -47 11 -34 27 8 10 8 15 -1 21 -8 4 -9 3 -5 -4 12 -20 -19 -13 -42 8
-12 11 -26 20 -32 20 -7 0 -9 8 -5 19 4 14 -1 21 -25 29 -28 10 -42 32 -20 32
22 0 8 17 -25 28 -23 9 -32 18 -28 27 5 15 -1 19 -50 30 -24 5 -28 10 -24 28
6 23 3 25 -95 65 -27 11 -39 32 -18 32 6 0 10 -4 10 -10 0 -5 5 -10 10 -10 18
0 10 22 -10 27 -11 3 -20 9 -20 13 0 4 -18 12 -41 19 -23 7 -48 15 -58 19 -14
5 -14 4 1 -11z m67 -105 c14 -11 13 -12 -4 -4 -21 10 -27 12 -47 12 -6 0 -3 6
8 14 14 11 20 11 23 3 2 -7 11 -18 20 -25z m416 -392 c3 -5 1 -10 -4 -10 -6 0
-11 5 -11 10 0 6 2 10 4 10 3 0 8 -4 11 -10z m95 -110 c0 -5 -5 -10 -11 -10
-5 0 -7 5 -4 10 3 6 8 10 11 10 2 0 4 -4 4 -10z m227 -134 c25 -5 26 -16 2
-16 -14 0 -34 7 -45 16 -18 15 -18 15 6 9 14 -3 30 -7 37 -9z"/>
<path d="M3496 3785 c4 -8 10 -15 15 -15 4 0 6 7 3 15 -4 8 -10 15 -15 15 -4
0 -6 -7 -3 -15z"/>
<path d="M5655 3730 c-3 -5 1 -10 9 -10 9 0 16 5 16 10 0 6 -4 10 -9 10 -6 0
-13 -4 -16 -10z"/>
<path d="M5334 3705 c-8 -20 2 -45 18 -45 10 0 10 2 -1 9 -8 5 -11 16 -6 30 7
24 -2 29 -11 6z"/>
<path d="M3072 3690 c0 -14 2 -19 5 -12 2 6 2 18 0 25 -3 6 -5 1 -5 -13z"/>
<path d="M5394 3686 c4 -25 22 -38 47 -34 23 4 23 5 4 13 -11 4 -28 14 -37 22
-14 13 -16 13 -14 -1z"/>
<path d="M5480 3670 c0 -5 7 -10 16 -10 8 0 12 5 9 10 -3 6 -10 10 -16 10 -5
0 -9 -4 -9 -10z"/>
<path d="M3170 3519 c0 -11 47 -12 54 -1 3 5 -8 9 -24 10 -17 0 -30 -4 -30 -9z"/>
<path d="M6793 3433 c-18 -37 -16 -70 3 -77 33 -12 100 -5 132 14 40 24 40 28
2 22 -16 -2 -30 0 -30 6 0 5 -14 12 -31 16 -21 4 -29 10 -26 20 5 13 -12 26
-31 26 -4 0 -13 -12 -19 -27z"/>
<path d="M6170 3222 c0 -16 28 -34 34 -23 4 6 -3 15 -14 21 -11 6 -20 7 -20 2z"/>
<path d="M6557 3195 c-4 -8 -3 -16 1 -19 4 -3 9 4 9 15 2 23 -3 25 -10 4z"/>
<path d="M6310 3140 c0 -5 9 -10 21 -10 11 0 17 5 14 10 -3 6 -13 10 -21 10
-8 0 -14 -4 -14 -10z"/>
<path d="M6320 3110 c0 -5 4 -10 9 -10 5 0 16 -3 25 -6 11 -4 16 -1 16 10 0
10 -9 16 -25 16 -14 0 -25 -4 -25 -10z"/>
<path d="M6296 3053 c-6 -14 -5 -15 5 -6 7 7 10 15 7 18 -3 3 -9 -2 -12 -12z"/>
<path d="M6349 3062 c-13 -5 -16 -18 -15 -49 2 -30 -2 -43 -11 -43 -7 0 -13
-4 -13 -10 0 -9 4 -11 40 -14 8 -1 14 -7 13 -14 -4 -18 12 -15 31 7 16 17 16
19 -5 24 -11 3 -18 10 -15 15 9 14 46 2 46 -14 0 -8 4 -14 8 -14 4 0 7 21 6
48 -2 39 -5 48 -23 50 -23 4 -27 -8 -9 -26 9 -9 8 -12 -5 -12 -15 0 -23 23
-18 53 1 8 -8 8 -30 -1z"/>
<path d="M5685 2940 c3 -5 8 -10 11 -10 2 0 4 5 4 10 0 6 -5 10 -11 10 -5 0
-7 -4 -4 -10z"/>
<path d="M5670 2901 c0 -6 6 -11 14 -11 8 0 16 -7 20 -15 3 -8 13 -15 21 -15
9 0 13 -5 10 -11 -4 -6 -13 -8 -21 -5 -8 3 -14 1 -14 -5 0 -23 32 -20 55 5 13
14 29 26 35 26 5 0 10 5 10 11 0 6 -7 8 -16 5 -9 -4 -23 -1 -30 5 -19 16 -84
23 -84 10z"/>
<path d="M6156 2801 c-4 -7 -5 -15 -2 -18 9 -9 19 4 14 18 -4 11 -6 11 -12 0z"/>
<path d="M6225 2800 c3 -5 8 -10 11 -10 2 0 4 5 4 10 0 6 -5 10 -11 10 -5 0
-7 -4 -4 -10z"/>
<path d="M5685 2790 c3 -5 8 -10 11 -10 2 0 4 5 4 10 0 6 -5 10 -11 10 -5 0
-7 -4 -4 -10z"/>
<path d="M6030 2750 c0 -5 5 -10 11 -10 5 0 7 5 4 10 -3 6 -8 10 -11 10 -2 0
-4 -4 -4 -10z"/>
<path d="M6150 2740 c0 -3 9 -16 19 -27 11 -12 17 -24 14 -27 -4 -3 -1 -6 6
-6 9 0 11 9 6 29 -5 23 -2 30 12 34 10 2 1 4 -19 3 -21 0 -38 -3 -38 -6z"/>
<path d="M6260 2732 c6 -13 14 -21 18 -18 3 4 -2 14 -12 24 -18 16 -18 16 -6
-6z"/>
<path d="M6228 2713 c7 -3 16 -2 19 1 4 3 -2 6 -13 5 -11 0 -14 -3 -6 -6z"/>
<path d="M5761 2544 c0 -11 3 -14 6 -6 3 7 2 16 -1 19 -3 4 -6 -2 -5 -13z"/>
<path d="M5780 2460 c0 -5 7 -10 15 -10 8 0 15 5 15 10 0 6 -7 10 -15 10 -8 0
-15 -4 -15 -10z"/>
<path d="M6185 2360 c3 -5 10 -10 16 -10 5 0 9 5 9 10 0 6 -7 10 -16 10 -8 0
-12 -4 -9 -10z"/>
<path d="M4880 2331 c0 -25 6 -27 13 -6 4 8 2 17 -3 20 -6 4 -10 -3 -10 -14z"/>
<path d="M2512 2321 c-10 -6 -9 -10 7 -14 14 -3 21 0 21 9 0 16 -9 18 -28 5z"/>
<path d="M6385 2321 c-6 -11 9 -23 19 -14 9 9 7 23 -3 23 -6 0 -12 -4 -16 -9z"/>
<path d="M2300 2310 c19 -13 30 -13 30 0 0 6 -10 10 -22 10 -19 0 -20 -2 -8
-10z"/>
<path d="M6417 2303 c-4 -3 -7 -11 -7 -17 0 -6 5 -5 12 2 6 6 9 14 7 17 -3 3
-9 2 -12 -2z"/>
<path d="M6094 2279 c-8 -13 25 -24 37 -12 7 7 3 12 -10 16 -12 3 -24 1 -27
-4z"/>
<path d="M2050 2225 c0 -9 -7 -18 -16 -22 -12 -4 -13 -8 -3 -14 7 -4 21 -3 31
2 22 12 24 49 3 49 -8 0 -15 -7 -15 -15z"/>
<path d="M2095 2220 c3 -5 10 -10 16 -10 5 0 9 5 9 10 0 6 -7 10 -16 10 -8 0
-12 -4 -9 -10z"/>
<path d="M2187 2223 c-4 -3 -7 -11 -7 -17 0 -6 5 -5 12 2 6 6 9 14 7 17 -3 3
-9 2 -12 -2z"/>
<path d="M6020 2210 c0 -5 5 -10 10 -10 6 0 10 5 10 10 0 6 -4 10 -10 10 -5 0
-10 -4 -10 -10z"/>
<path d="M6017 2166 c-16 -13 -16 -14 3 -19 22 -6 38 10 24 23 -5 5 -17 3 -27
-4z"/>
<path d="M2005 2160 c3 -5 17 -10 31 -10 14 0 22 4 19 10 -3 6 -17 10 -31 10
-14 0 -22 -4 -19 -10z"/>
<path d="M2045 2130 c-4 -6 5 -10 20 -10 15 0 24 4 20 10 -3 6 -12 10 -20 10
-8 0 -17 -4 -20 -10z"/>
<path d="M1733 2123 c-21 -8 -15 -20 12 -25 28 -6 27 -6 19 16 -6 17 -11 18
-31 9z"/>
<path d="M5987 2123 c-10 -9 -9 -23 1 -23 5 0 17 7 28 15 19 14 19 14 -2 15
-11 0 -24 -3 -27 -7z"/>
<path d="M1593 2053 c9 -2 17 -9 17 -14 0 -6 5 -7 11 -3 14 8 -8 24 -31 23
-11 -1 -10 -3 3 -6z"/>
<path d="M5065 2040 c3 -5 10 -10 16 -10 5 0 9 5 9 10 0 6 -7 10 -16 10 -8 0
-12 -4 -9 -10z"/>
<path d="M1452 2020 c-10 -17 -10 -20 5 -20 10 0 26 7 36 14 10 8 27 12 37 9
11 -3 20 0 20 6 0 6 -18 11 -43 11 -31 0 -45 -5 -55 -20z"/>
<path d="M1090 2000 c0 -5 5 -10 11 -10 5 0 7 5 4 10 -3 6 -8 10 -11 10 -2 0
-4 -4 -4 -10z"/>
<path d="M1210 2001 c0 -6 5 -13 10 -16 6 -3 10 1 10 9 0 9 -4 16 -10 16 -5 0
-10 -4 -10 -9z"/>
<path d="M888 1843 c6 -2 12 -11 12 -19 0 -9 5 -12 10 -9 19 12 10 35 -12 34
-13 0 -17 -3 -10 -6z"/>
<path d="M717 1818 c-6 -19 4 -49 15 -46 5 2 9 7 9 11 -1 4 -1 16 -1 27 0 22
-16 27 -23 8z"/>
<path d="M825 1811 c-6 -11 9 -23 19 -14 9 9 7 23 -3 23 -6 0 -12 -4 -16 -9z"/>
<path d="M680 1745 c0 -8 4 -15 10 -15 5 0 7 7 4 15 -4 8 -8 15 -10 15 -2 0
-4 -7 -4 -15z"/>
<path d="M658 1685 c-7 -8 3 -55 11 -55 4 0 8 14 8 30 0 28 -7 37 -19 25z"/>
<path d="M480 1615 c0 -9 6 -12 15 -9 8 4 15 10 15 15 0 5 -7 9 -15 9 -8 0
-15 -7 -15 -15z"/>
<path d="M400 1561 c0 -5 7 -14 15 -21 16 -14 18 -10 9 14 -6 17 -24 22 -24 7z"/>
<path d="M4044 1454 c9 -28 12 -31 14 -14 4 26 -4 50 -16 50 -5 0 -4 -16 2
-36z"/>
<path d="M0 1360 c0 -5 11 -10 24 -10 14 0 28 5 31 10 4 6 -7 10 -24 10 -17 0
-31 -4 -31 -10z"/>
<path d="M4271 1146 c-8 -10 -9 -16 -1 -21 5 -3 13 1 16 10 9 22 -1 29 -15 11z"/>
<path d="M4296 1077 c3 -10 9 -15 12 -12 3 3 0 11 -7 18 -10 9 -11 8 -5 -6z"/>
<path d="M5348 1078 c9 -9 9 -15 -1 -26 -10 -12 -9 -14 3 -10 23 7 26 48 4 48
-14 0 -15 -3 -6 -12z"/>
<path d="M4739 1023 c-1 -5 -1 -11 -1 -14 1 -4 -8 -5 -18 -2 -17 4 -20 0 -20
-26 0 -24 4 -31 20 -31 11 0 20 4 20 9 0 4 11 6 24 4 28 -6 41 19 26 48 -10
18 -49 27 -51 12z"/>
<path d="M4531 994 c0 -11 3 -14 6 -6 3 7 2 16 -1 19 -3 4 -6 -2 -5 -13z"/>
<path d="M4586 985 c-4 -10 1 -15 14 -15 11 0 20 7 20 15 0 8 -6 15 -14 15 -8
0 -16 -7 -20 -15z"/>
</g>
</svg>
